#N canvas 141 23 1116 643 10;
#X obj 63 21 notein;
#X obj 24 81 sel 36;
#X obj 72 81 sel 38;
#X obj 119 81 sel 40;
#X obj 171 81 sel 41;
#X obj 223 81 sel 43;
#X obj 274 81 sel 45;
#X msg 367 16 connect 127.0.0.1 3003;
#X msg 15 158 send /gates/gate1 1;
#X msg 414 101 connect 10.0.0.10 3003;
#X msg 475 304 disconnect;
#X text 523 139 run this on a computer where you are generating midi
notes;
#X text 522 158 send osc messages to rpi in modular;
#X msg 69 212 send /gates/gate3 1;
#X msg 96 239 send /gates/gate4 1;
#X msg 121 268 send /gates/gate5 1;
#X msg 148 298 send /gates/gate6 1;
#X msg 40 185 send /gates/gate2 1;
#X text 510 16 localhost;
#X text 563 97 rpi - modular, f 11;
#X obj 90 329 pd-mrpeach/osc/packOSC;
#X obj 413 52 loadbang;
#X obj 413 75 del 1000;
#X obj 306 384 /Users/chris/nextcloud/diy_modular_synthesizer/pd_patches/rpi_zero/mac_externals/mrpeach/udpsend
;
#X connect 0 0 1 0;
#X connect 0 0 2 0;
#X connect 0 0 3 0;
#X connect 0 0 4 0;
#X connect 0 0 5 0;
#X connect 0 0 6 0;
#X connect 1 0 8 0;
#X connect 2 0 17 0;
#X connect 3 0 13 0;
#X connect 4 0 14 0;
#X connect 5 0 15 0;
#X connect 6 0 16 0;
#X connect 7 0 23 0;
#X connect 8 0 20 0;
#X connect 9 0 23 0;
#X connect 10 0 23 0;
#X connect 13 0 20 0;
#X connect 14 0 20 0;
#X connect 15 0 20 0;
#X connect 16 0 20 0;
#X connect 17 0 20 0;
#X connect 20 0 23 0;
#X connect 21 0 22 0;
#X connect 22 0 9 0;
