#N canvas 340 71 600 460 12;
#X obj 185 96 sfwrite~ 2;
#X msg 65 16 open test.wav;
#X floatatom 185 16;
#X msg 147 308 0;
#X obj 232 17 adc~;
#X msg 91 278 0;
#X msg 59 278 1;
#X obj 142 222 table;
#X msg 136 171 bang;
#X msg 32 171 resize 441000;
#X msg 181 172 read16 test.wav 200 l;
#X obj 417 104 env~;
#X obj 298 34 osc~ 220;
#X obj 125 396 dac~;
#X floatatom 411 10;
#X obj 125 341 sfread~ 2;
#X obj 281 379 dbtorms;
#X obj 281 279 slider 96 0 15;
#X obj 159 372 *~ 0;
#X obj 125 372 *~ 0;
#X msg 125 277 open test.wav \, bang;
#X floatatom 417 129;
#X connect 1 0 0 0;
#X connect 2 0 0 0;
#X connect 3 0 15 1;
#X connect 5 0 15 0;
#X connect 6 0 15 0;
#X connect 8 0 7 0;
#X connect 9 0 7 0;
#X connect 10 0 7 0;
#X connect 11 0 21 0;
#X connect 12 0 0 0;
#X connect 12 0 0 1;
#X connect 12 0 11 0;
#X connect 12 0 19 0;
#X connect 12 0 18 0;
#X connect 14 0 12 0;
#X connect 15 0 19 0;
#X connect 15 1 18 0;
#X connect 16 0 18 1;
#X connect 16 0 19 1;
#X connect 18 0 13 1;
#X connect 19 0 13 0;
#X connect 20 0 15 0;
