#N canvas 226 114 478 387 10;
#X obj 151 263 stk BeeThree;
#X obj 142 307 dac~;
#X msg 14 84 print;
#X text 13 66 Learn about the different instruments:;
#X floatatom 240 248 5 0 0 0 - - -;
#X msg 48 121 38 0.5;
#X msg 15 121 38 1;
#X msg 95 121 38 0.25;
#X msg 147 121 38 0.1;
#X text 14 102 Notes and velocity;
#X text 238 231 velocity (0-1);
#X msg 18 225 control 1 \$1;
#X floatatom 18 209 5 0 0 0 - - -;
#X text 16 196 change different control channels (see stk docs);
#X text 17 361 (C) 1999-2004 Guenter Geiger;
#X text 12 15 stk - external to access the instrument from Perry Cooks
Synthesis Toolkit;
#X msg 18 276 aftertouch \$1;
#X msg 19 324 pitchbend \$1;
#X floatatom 18 261 5 0 0 0 - - -;
#X floatatom 19 310 5 0 0 0 - - -;
#X text 17 248 aftertouch;
#X text 18 296 pitchbend;
#X connect 0 0 1 0;
#X connect 0 0 1 1;
#X connect 2 0 0 0;
#X connect 4 0 0 1;
#X connect 5 0 0 0;
#X connect 6 0 0 0;
#X connect 7 0 0 0;
#X connect 8 0 0 0;
#X connect 11 0 0 0;
#X connect 12 0 11 0;
#X connect 16 0 0 0;
#X connect 17 0 0 0;
#X connect 18 0 16 0;
#X connect 19 0 17 0;
