#N canvas 450 51 994 831 10;
#X obj 242 255 noteout;
#X msg 199 168 36;
#X floatatom 277 161 5 0 0 0 - - -, f 5;
#X obj 233 218 makenote 127;
#X obj 95 56 tgl 15 0 empty empty empty 17 7 0 10 -262144 -1 -1 0 1
;
#X obj 493 257 noteout;
#X floatatom 528 163 5 0 0 0 - - -, f 5;
#X obj 484 220 makenote 127;
#X obj 346 58 tgl 15 0 empty empty empty 17 7 0 10 -262144 -1 -1 0
1;
#X msg 450 170 38;
#X obj 695 246 noteout;
#X floatatom 730 152 5 0 0 0 - - -, f 5;
#X obj 686 209 makenote 127;
#X obj 548 47 tgl 15 0 empty empty empty 17 7 0 10 -262144 -1 -1 0
1;
#X obj 616 91 metro 100;
#X msg 652 159 40;
#X obj 229 544 noteout;
#X floatatom 264 450 5 0 0 0 - - -, f 5;
#X obj 220 507 makenote 127;
#X obj 82 345 tgl 15 0 empty empty empty 17 7 0 10 -262144 -1 -1 0
1;
#X obj 150 389 metro 100;
#X msg 186 457 41;
#X obj 442 541 noteout;
#X floatatom 477 447 5 0 0 0 - - -, f 5;
#X obj 433 504 makenote 127;
#X obj 295 342 tgl 15 0 empty empty empty 17 7 0 10 -262144 -1 -1 0
1;
#X obj 363 386 metro 100;
#X msg 399 454 43;
#X obj 733 535 noteout;
#X floatatom 768 441 5 0 0 0 - - -, f 5;
#X obj 724 498 makenote 127;
#X obj 586 336 tgl 15 0 empty empty empty 17 7 0 10 -262144 -1 -1 0
1;
#X obj 654 380 metro 100;
#X msg 690 448 45;
#X obj 163 100 metro 50;
#X obj 414 102 metro 30;
#X obj 350 682 midiin;
#X connect 1 0 3 0;
#X connect 2 0 3 2;
#X connect 3 0 0 0;
#X connect 3 1 0 1;
#X connect 4 0 34 0;
#X connect 6 0 7 2;
#X connect 7 0 5 0;
#X connect 7 1 5 1;
#X connect 8 0 35 0;
#X connect 9 0 7 0;
#X connect 11 0 12 2;
#X connect 12 0 10 0;
#X connect 12 1 10 1;
#X connect 13 0 14 0;
#X connect 14 0 15 0;
#X connect 15 0 12 0;
#X connect 17 0 18 2;
#X connect 18 0 16 0;
#X connect 18 1 16 1;
#X connect 19 0 20 0;
#X connect 20 0 21 0;
#X connect 21 0 18 0;
#X connect 23 0 24 2;
#X connect 24 0 22 0;
#X connect 24 1 22 1;
#X connect 25 0 26 0;
#X connect 26 0 27 0;
#X connect 27 0 24 0;
#X connect 29 0 30 2;
#X connect 30 0 28 0;
#X connect 30 1 28 1;
#X connect 31 0 32 0;
#X connect 32 0 33 0;
#X connect 33 0 30 0;
#X connect 34 0 1 0;
#X connect 35 0 9 0;
