#N canvas 0 51 991 654 10;
#X obj 6 9 pdwiringPi/pdwiringPi/wiringPi;
#X obj 523 278 wiringPi pin 14 output;
#X msg 556 253 0;
#X msg 520 252 1;
#X text 224 8 load wiring pi \, or something;
#X msg 386 249 0;
#X msg 350 248 1;
#X obj 353 274 wiringPi pin 15 output;
#X msg 210 251 0;
#X msg 174 250 1;
#X obj 177 276 wiringPi pin 18 output;
#X msg 31 254 0;
#X msg -5 253 1;
#X obj -2 279 wiringPi pin 23 output;
#X connect 2 0 1 0;
#X connect 3 0 1 0;
#X connect 5 0 7 0;
#X connect 6 0 7 0;
#X connect 8 0 10 0;
#X connect 9 0 10 0;
#X connect 11 0 13 0;
#X connect 12 0 13 0;
