#N canvas 192 23 753 851 10;
#X obj 156 163 unpackOSC;
#X obj 155 90 packOSC;
#X obj 156 134 o.io.slipserial;
#X obj -40 118 print;
#X text -60 135 serial data sent and received here;
#X obj -40 -96 tgl 15 0 empty empty empty 17 7 0 10 -262144 -1 -1 0
1;
#X text 528 75 hit this to open the connection;
#X obj -36 326 route /a0;
#X obj 522 -9 loadbang;
#X obj 520 21 del 500;
#X obj -33 366 vsl 15 128 0 1023 0 0 empty empty empty 0 -9 0 10 -262144
-1 -1 0 1;
#X obj 154 190 s osc;
#X obj -34 301 r osc;
#X floatatom -10 364 5 0 0 0 - - -, f 5;
#X obj 38 366 vsl 15 128 0 1023 0 0 empty empty empty 0 -9 0 10 -262144
-1 -1 0 1;
#X obj 37 301 r osc;
#X floatatom 61 364 5 0 0 0 - - -, f 5;
#X obj 35 326 route /a1;
#X obj 111 365 vsl 15 128 0 1023 0 0 empty empty empty 0 -9 0 10 -262144
-1 -1 0 1;
#X obj 110 301 r osc;
#X floatatom 134 363 5 0 0 0 - - -, f 5;
#X obj 108 325 route /a2;
#X obj 186 365 vsl 15 128 0 1023 0 0 empty empty empty 0 -9 0 10 -262144
-1 -1 0 1;
#X obj 185 301 r osc;
#X floatatom 209 363 5 0 0 0 - - -, f 5;
#X obj 257 365 vsl 15 128 0 1023 0 0 empty empty empty 0 -9 0 10 -262144
-1 -1 0 1;
#X obj 256 301 r osc;
#X floatatom 280 363 5 0 0 0 - - -, f 5;
#X obj 330 364 vsl 15 128 0 1023 0 0 empty empty empty 0 -9 0 10 -262144
-1 -1 0 1;
#X obj 329 301 r osc;
#X floatatom 353 362 5 0 0 0 - - -, f 5;
#X obj 183 325 route /a3;
#X obj 254 325 route /a4;
#X obj 327 324 route /a5;
#X text -37 277 # ANALOG INPUTS;
#X obj 308 -66 tgl 15 0 empty empty empty 17 7 0 10 -262144 -1 -1 0
1;
#X obj 181 -130 r link_step;
#X msg 171 -51 /led 1;
#X msg 211 32 /led 0;
#X obj 230 -28 bng 15 250 50 0 empty empty empty 17 7 0 10 -262144
-1 -1;
#X msg -10 -52 /led 1;
#X msg -1 52 /led 0;
#X obj -34 -8 bng 15 250 50 0 empty empty empty 17 7 0 10 -262144 -1
-1;
#X obj -18 25 del 500;
#X obj -14 -83 metro 1600;
#X obj 710 208 r link_step;
#X floatatom 751 237 5 0 0 0 - - -, f 5;
#X obj 815 206 r link_reset;
#X obj 821 238 bng 15 250 50 0 empty empty empty 17 7 0 10 -262144
-1 -1;
#X obj 135 -122 bng 15 50 50 0 empty empty empty 17 7 0 10 -262144
-1 -1;
#X msg 527 91 devicename /dev/cu.usbmodemFA131 \, baud 115200 \, pollintervall
4 \, verbose 1;
#X obj 238 4 del 50;
#X obj 216 -80 metro 170;
#X obj 958 303 ../pd_modular_synth/vco2;
#X obj 998 560 dac~;
#X obj 389 196 unpackOSC;
#X obj 595 503 dec_to_binary;
#X floatatom 591 461 5 0 15 0 - - -, f 5;
#X obj 595 533 tgl 15 0 empty empty empty 17 7 0 10 -262144 -1 -1 0
1;
#X obj 625 533 tgl 15 0 empty empty empty 17 7 0 10 -262144 -1 -1 0
1;
#X obj 658 533 tgl 15 0 empty empty empty 17 7 0 10 -262144 -1 -1 0
1;
#X obj 687 533 tgl 15 0 empty empty empty 17 7 0 10 -262144 -1 -1 0
1;
#X obj 597 574 wiringPi pin 23 output;
#X obj 622 605 wiringPi pin 18 output;
#X obj 658 636 wiringPi pin 15 output;
#X obj 696 670 wiringPi pin 14 output;
#X connect 0 0 11 0;
#X connect 1 0 2 0;
#X connect 2 0 0 0;
#X connect 5 0 44 0;
#X connect 7 0 10 0;
#X connect 7 0 13 0;
#X connect 8 0 9 0;
#X connect 9 0 50 0;
#X connect 12 0 7 0;
#X connect 15 0 17 0;
#X connect 17 0 14 0;
#X connect 17 0 16 0;
#X connect 19 0 21 0;
#X connect 21 0 18 0;
#X connect 21 0 20 0;
#X connect 23 0 31 0;
#X connect 26 0 32 0;
#X connect 29 0 33 0;
#X connect 31 0 22 0;
#X connect 31 0 24 0;
#X connect 32 0 25 0;
#X connect 32 0 27 0;
#X connect 33 0 28 0;
#X connect 33 0 30 0;
#X connect 35 0 52 0;
#X connect 36 0 49 0;
#X connect 37 0 1 0;
#X connect 37 0 39 0;
#X connect 38 0 1 0;
#X connect 39 0 51 0;
#X connect 40 0 42 0;
#X connect 40 0 1 0;
#X connect 41 0 1 0;
#X connect 42 0 43 0;
#X connect 43 0 41 0;
#X connect 44 0 40 0;
#X connect 45 0 46 0;
#X connect 47 0 48 0;
#X connect 50 0 2 1;
#X connect 51 0 38 0;
#X connect 52 0 37 0;
#X connect 56 0 58 0;
#X connect 56 1 59 0;
#X connect 56 2 60 0;
#X connect 56 3 61 0;
#X connect 57 0 56 0;
