#N canvas 680 23 584 620 10;
#X obj 19 4 inlet;
#X obj 148 457 outlet;
#X obj 214 456 outlet;
#X obj 280 457 outlet;
#X obj 354 458 outlet;
#X obj 22 50 / 2;
#X obj 53 50 % 2;
#X floatatom 106 71 5 0 0 0 - - -, f 5;
#X floatatom 22 90 5 0 0 0 - - -, f 5;
#X obj 22 70 i;
#X obj 22 134 / 2;
#X obj 22 155 i;
#X obj 181 138 % 2;
#X floatatom 203 158 5 0 0 0 - - -, f 5;
#X floatatom 22 174 5 0 0 0 - - -, f 5;
#X obj 23 221 / 2;
#X obj 231 225 % 2;
#X floatatom 276 258 5 0 0 0 - - -, f 5;
#X obj 23 241 i;
#X floatatom 22 261 5 0 0 0 - - -, f 5;
#X obj 22 302 / 2;
#X obj 314 312 % 2;
#X floatatom 365 342 5 0 0 0 - - -, f 5;
#X obj 22 324 i;
#X obj 23 31 t f f;
#X obj 22 197 t f f;
#X obj 22 281 t f f;
#X obj 22 110 t f f;
#X text 59 2 << number 0-15;
#X text 357 13 thanks to Rob Hassell in the FB pure data group for
this, f 17;
#X connect 0 0 24 0;
#X connect 5 0 9 0;
#X connect 6 0 7 0;
#X connect 6 0 1 0;
#X connect 8 0 27 0;
#X connect 9 0 8 0;
#X connect 10 0 11 0;
#X connect 11 0 14 0;
#X connect 12 0 13 0;
#X connect 12 0 2 0;
#X connect 14 0 25 0;
#X connect 15 0 18 0;
#X connect 16 0 17 0;
#X connect 16 0 3 0;
#X connect 18 0 19 0;
#X connect 19 0 26 0;
#X connect 20 0 23 0;
#X connect 21 0 22 0;
#X connect 21 0 4 0;
#X connect 24 0 5 0;
#X connect 24 1 6 0;
#X connect 25 0 15 0;
#X connect 25 1 16 0;
#X connect 26 0 20 0;
#X connect 26 1 21 0;
#X connect 27 0 10 0;
#X connect 27 1 12 0;
