#N canvas 562 23 725 557 10;
#N canvas 225 23 1117 851 sine 0;
#X obj 56 425 line;
#X floatatom 56 453 5 0 0 0 - - -, f 5;
#X obj 60 172 bng 15 250 50 0 empty empty empty 17 7 0 10 -262144 -1
-1;
#X msg 63 387 0 \$1;
#X obj -29 186 bng 15 250 50 0 empty empty empty 17 7 0 10 -262144
-1 -1;
#X msg -23 337 1 \$1;
#X text -23 157 attack;
#X text 134 165 decay;
#X obj 57 476 sel 1;
#X obj 129 513 bng 15 250 50 0 empty empty empty 17 7 0 10 -262144
-1 -1;
#X floatatom 71 361 5 0 0 0 - - -, f 5;
#X floatatom -24 311 5 0 0 0 - - -, f 5;
#X obj -152 100 r list1;
#X obj 119 110 r list1;
#X floatatom 98 232 5 0 0 0 - - -, f 5;
#X obj 92 290 + 1;
#X text 570 252 GENERATION;
#X obj 189 171 loadbang;
#X msg 162 193 40;
#X obj 736 815 s~ sine;
#X obj -157 134 route /2/attack;
#X obj 114 144 route /2/decay;
#X obj 34 545 s eg2;
#X obj -38 116 r gate2;
#X obj 721 583 osc~ 200;
#X obj 755 286 r list1;
#X obj 755 325 route /sine/pitch;
#X floatatom 761 369 5 0 0 0 - - -, f 5;
#N canvas 0 22 612 483 equal_power_crossfade 0;
#X obj 33 48 inlet~;
#X obj 244 58 inlet;
#X obj 33 332 outlet~;
#X obj 319 54 loadbang;
#X msg 319 74 0.5;
#X obj 49 194 expr cos($f1 * 3.14159 / 2);
#X obj 244 194 expr sin($f1 * 3.14159 / 2);
#X obj 244 134 clip 0 1;
#N canvas 0 22 569 633 pan_core 0;
#X obj 21 106 inlet~;
#X obj 226 126 inlet;
#X obj 80 453 *~;
#X obj 144 497 outlet~;
#X obj 210 452 *~;
#X obj 226 428 line~;
#X obj 96 428 line~;
#X obj 96 127 inlet;
#X obj 179 104 inlet~;
#X text 244 544 comment;
#X obj 96 389 pack f 5;
#X obj 226 389 pack f 5;
#X text 223 540 Hans-Christoph Steiner \, 2004;
#X text 223 526 Adapted from [pan_core~];
#X connect 0 0 2 0;
#X connect 1 0 11 0;
#X connect 2 0 3 0;
#X connect 4 0 3 0;
#X connect 5 0 4 1;
#X connect 6 0 2 1;
#X connect 7 0 10 0;
#X connect 8 0 4 0;
#X connect 10 0 6 0;
#X connect 11 0 5 0;
#X restore 39 266 pd pan_core;
#X text 256 437 Adapted from [equal_power_pan~] \, Hans-Christoph Steiner
\, 2004;
#X text 411 449 comment;
#X obj 128 46 inlet~;
#X connect 0 0 8 0;
#X connect 1 0 7 0;
#X connect 3 0 4 0;
#X connect 4 0 7 0;
#X connect 5 0 8 1;
#X connect 6 0 8 3;
#X connect 7 0 5 0;
#X connect 7 0 6 0;
#X connect 8 0 2 0;
#X connect 11 0 8 2;
#X restore 718 667 pd equal_power_crossfade;
#X obj 954 390 r list1;
#X floatatom 942 445 5 0 0 0 - - -, f 5;
#X obj 956 418 route /sine/wavetype;
#X msg -32 247 1;
#X obj 98 258 * 1500;
#X obj 795 527 phasor~ 200;
#X obj 800 572 expr~ $v1 > 0.5;
#X text 814 550 square wave;
#X text 29 82 AMPLITUDE ENVELOPE;
#X obj 438 394 line;
#X floatatom 438 422 5 0 0 0 - - -, f 5;
#X obj 442 141 bng 15 250 50 0 empty empty empty 17 7 0 10 -262144
-1 -1;
#X msg 445 356 0 \$1;
#X obj 353 155 bng 15 250 50 0 empty empty empty 17 7 0 10 -262144
-1 -1;
#X msg 359 306 1 \$1;
#X text 359 126 attack;
#X text 516 134 decay;
#X obj 439 445 sel 1;
#X obj 511 482 bng 15 250 50 0 empty empty empty 17 7 0 10 -262144
-1 -1;
#X floatatom 453 330 5 0 0 0 - - -, f 5;
#X floatatom 358 280 5 0 0 0 - - -, f 5;
#X obj 230 69 r list1;
#X obj 501 79 r list1;
#X floatatom 480 201 5 0 0 0 - - -, f 5;
#X obj 474 259 + 1;
#X obj 571 140 loadbang;
#X msg 544 162 40;
#X obj 225 103 route /2/attack;
#X obj 344 85 r gate2;
#X msg 350 216 1;
#X text 411 51 PITCH ENVELOPE;
#X obj 416 514 s eg5;
#X obj 748 468 +~;
#X obj 600 445 *;
#X obj 541 274 r list1;
#X floatatom 542 336 5 0 0 0 - - -, f 5;
#X obj 538 361 * 400;
#X obj 541 302 route /sine/bend_amt;
#X obj 496 113 route /sine/bend;
#X obj 487 134 * 10;
#X obj 752 399 * 200;
#X obj 751 429 -200;
#X obj 480 227 * 100;
#X obj 798 594 *~ 0.8;
#X obj 19 116 r sine_midi;
#X obj 677 420 +~;
#X obj 689 239 catch~ sine_fm;
#X obj 679 166 osc~ 400;
#X obj 690 347 *~ 2000;
#X obj 715 98 send toGUI;
#X obj 712 27 loadbang;
#X msg 715 73 list /sine/pitch \$1;
#X msg 714 52 0.1;
#X obj 848 98 send toGUI;
#X obj 845 27 loadbang;
#X msg 848 73 list /sine/wavetype \$1;
#X msg 847 52 0;
#X obj 1006 97 send toGUI;
#X obj 1003 26 loadbang;
#X msg 1006 72 list /2/decay \$1;
#X msg 1006 50 0.2;
#X text -126 674 created this from an old project (2016!) so instead
of renaming everything \, I just send stuff into other stuff. that's
why it's sort of weird;
#X obj 672 734 r eg2;
#X obj 761 769 *~;
#X connect 0 0 1 0;
#X connect 1 0 8 0;
#X connect 1 0 22 0;
#X connect 2 0 14 0;
#X connect 3 0 0 0;
#X connect 4 0 32 0;
#X connect 5 0 0 0;
#X connect 8 0 9 0;
#X connect 9 0 2 0;
#X connect 10 0 3 0;
#X connect 11 0 5 0;
#X connect 12 0 20 0;
#X connect 13 0 21 0;
#X connect 14 0 33 0;
#X connect 15 0 10 0;
#X connect 17 0 18 0;
#X connect 18 0 14 0;
#X connect 21 0 14 0;
#X connect 23 0 4 0;
#X connect 24 0 28 0;
#X connect 25 0 26 0;
#X connect 26 0 27 0;
#X connect 27 0 69 0;
#X connect 28 0 92 0;
#X connect 29 0 31 0;
#X connect 30 0 28 2;
#X connect 31 0 30 0;
#X connect 32 0 11 0;
#X connect 33 0 15 0;
#X connect 34 0 35 0;
#X connect 35 0 72 0;
#X connect 38 0 39 0;
#X connect 39 0 46 0;
#X connect 39 0 60 0;
#X connect 39 0 62 0;
#X connect 40 0 52 0;
#X connect 41 0 38 0;
#X connect 42 0 58 0;
#X connect 43 0 38 0;
#X connect 46 0 47 0;
#X connect 47 0 40 0;
#X connect 48 0 41 0;
#X connect 49 0 43 0;
#X connect 50 0 56 0;
#X connect 51 0 67 0;
#X connect 52 0 71 0;
#X connect 53 0 48 0;
#X connect 54 0 55 0;
#X connect 55 0 52 0;
#X connect 57 0 42 0;
#X connect 58 0 49 0;
#X connect 61 0 34 0;
#X connect 61 0 24 0;
#X connect 62 0 74 0;
#X connect 63 0 66 0;
#X connect 64 0 65 0;
#X connect 65 0 62 1;
#X connect 66 0 64 0;
#X connect 67 0 68 0;
#X connect 68 0 52 0;
#X connect 69 0 70 0;
#X connect 70 0 61 1;
#X connect 71 0 53 0;
#X connect 72 0 28 1;
#X connect 73 0 4 0;
#X connect 74 0 61 0;
#X connect 75 0 77 0;
#X connect 77 0 74 1;
#X connect 79 0 81 0;
#X connect 80 0 78 0;
#X connect 81 0 80 0;
#X connect 83 0 85 0;
#X connect 84 0 82 0;
#X connect 85 0 84 0;
#X connect 87 0 89 0;
#X connect 88 0 86 0;
#X connect 89 0 88 0;
#X connect 91 0 92 1;
#X connect 92 0 19 0;
#X restore 360 58 pd sine;
#X obj 360 88 r~ sine;
#X obj 368 268 *~ 1;
#X obj 365 425 dac~;
#X obj 224 280 r program;
#X obj 224 306 sel 0;
#X msg 227 338 1;
#X msg 266 337 0;
#X obj 364 373 *~;
#X text 404 268 level;
#X obj 365 116 *~ 0.25;
#N canvas 281 23 1159 851 fm 1;
#X obj 128 424 line;
#X floatatom 128 452 5 0 0 0 - - -, f 5;
#X obj 132 171 bng 15 250 50 0 empty empty empty 17 7 0 10 -262144
-1 -1;
#X msg 135 386 0 \$1;
#X obj 37 185 bng 15 250 50 0 empty empty empty 17 7 0 10 -262144 -1
-1;
#X msg 49 336 1 \$1;
#X text 49 156 attack;
#X text 206 164 decay;
#X obj 129 475 sel 1;
#X obj 201 512 bng 15 250 50 0 empty empty empty 17 7 0 10 -262144
-1 -1;
#X floatatom 143 360 5 0 0 0 - - -, f 5;
#X floatatom 48 310 5 0 0 0 - - -, f 5;
#X obj -80 99 r list1;
#X obj 191 109 r list1;
#X floatatom 170 231 5 0 0 0 - - -, f 5;
#X msg 40 246 0;
#X obj 251 163 loadbang;
#X msg 234 192 40;
#X obj 410 166 r list1;
#X floatatom 425 303 5 0 0 0 - - -, f 5;
#X floatatom 337 396 10 0 0 0 - - -, f 10;
#X obj -85 133 route /3/attack;
#X obj 186 143 route /3/decay;
#X obj 34 115 r gate3;
#X obj 106 544 s eg3;
#X obj 410 205 route /fm/carrier;
#X obj 923 418 line;
#X floatatom 923 446 5 0 0 0 - - -, f 5;
#X obj 927 165 bng 15 250 50 0 empty empty empty 17 7 0 10 -262144
-1 -1;
#X msg 930 380 0 \$1;
#X obj 838 179 bng 15 250 50 0 empty empty empty 17 7 0 10 -262144
-1 -1;
#X msg 844 330 1 \$1;
#X text 844 150 attack;
#X text 1001 158 decay;
#X obj 924 469 sel 1;
#X obj 996 506 bng 15 250 50 0 empty empty empty 17 7 0 10 -262144
-1 -1;
#X floatatom 843 304 5 0 0 0 - - -, f 5;
#X obj 832 21 r list1;
#X obj 986 103 r list1;
#X floatatom 965 220 5 0 0 0 - - -, f 5;
#X msg 835 240 0;
#X obj 1058 163 loadbang;
#X msg 1029 186 40;
#X obj 1293 493 osc~ 200;
#X obj 1303 269 r list1;
#X floatatom 1325 331 5 0 0 0 - - -, f 5;
#X floatatom 1251 436 10 0 0 0 - - -, f 10;
#X obj 829 109 r gate3;
#X obj 827 55 route /4/attack;
#X obj 981 137 route /4/decay;
#X obj 901 538 s eg4;
#X obj 1303 299 route /fm/modulator;
#X obj 1430 655 s~ fm-mod;
#X obj 453 447 +~;
#X text 94 76 CARRIER ENVELOPE;
#X text 378 43 CARRIER SYNTHESIS;
#X text 896 75 MODULATOR ENVELOPE;
#X text 1284 247 MODULATOR SYNTHESIS;
#X obj 610 286 *~;
#X obj 603 333 *~;
#X obj 612 198 r~ fm-mod;
#X obj 641 227 r eg4;
#X obj 499 -1 r list1;
#X obj 515 34 route /fm/amount;
#X obj 581 190 vsl 15 128 0 1 0 0 empty empty fm_mod_lev 0 -9 0 10
-262144 -1 -1 12700 1;
#X obj 554 400 *~ 1000;
#X obj 455 755 s~ fm;
#X obj 1316 396 * 4000;
#X obj 382 558 osc~ 200;
#X obj 679 484 r list1;
#X obj 681 512 route /fm/wavetype;
#X floatatom 667 539 5 0 0 0 - - -, f 5;
#N canvas 0 22 612 483 equal_power_crossfade 0;
#X obj 33 48 inlet~;
#X obj 244 58 inlet;
#X obj 33 332 outlet~;
#X obj 319 54 loadbang;
#X msg 319 74 0.5;
#X obj 49 194 expr cos($f1 * 3.14159 / 2);
#X obj 244 194 expr sin($f1 * 3.14159 / 2);
#X obj 244 134 clip 0 1;
#N canvas 0 22 569 633 pan_core 0;
#X obj 21 106 inlet~;
#X obj 226 126 inlet;
#X obj 80 453 *~;
#X obj 144 497 outlet~;
#X obj 210 452 *~;
#X obj 226 428 line~;
#X obj 96 428 line~;
#X obj 96 127 inlet;
#X obj 179 104 inlet~;
#X text 244 544 comment;
#X obj 96 389 pack f 5;
#X obj 226 389 pack f 5;
#X text 223 540 Hans-Christoph Steiner \, 2004;
#X text 223 526 Adapted from [pan_core~];
#X connect 0 0 2 0;
#X connect 1 0 11 0;
#X connect 2 0 3 0;
#X connect 4 0 3 0;
#X connect 5 0 4 1;
#X connect 6 0 2 1;
#X connect 7 0 10 0;
#X connect 8 0 4 0;
#X connect 10 0 6 0;
#X connect 11 0 5 0;
#X restore 39 266 pd pan_core;
#X text 256 437 Adapted from [equal_power_pan~] \, Hans-Christoph Steiner
\, 2004;
#X text 411 449 comment;
#X obj 128 46 inlet~;
#X connect 0 0 8 0;
#X connect 1 0 7 0;
#X connect 3 0 4 0;
#X connect 4 0 7 0;
#X connect 5 0 8 1;
#X connect 6 0 8 3;
#X connect 7 0 5 0;
#X connect 7 0 6 0;
#X connect 8 0 2 0;
#X connect 11 0 8 2;
#X restore 411 616 pd equal_power_crossfade;
#X obj 522 567 phasor~ 200;
#X obj 568 131 * 10;
#X obj 178 200 * 1000;
#X obj 978 184 * 1000;
#X obj 1609 494 r list1;
#X floatatom 1597 549 5 0 0 0 - - -, f 5;
#X obj 1611 522 route /fm_mod/wavetype;
#N canvas 0 22 612 483 equal_power_crossfade 0;
#X obj 33 48 inlet~;
#X obj 244 58 inlet;
#X obj 33 332 outlet~;
#X obj 319 54 loadbang;
#X msg 319 74 0.5;
#X obj 49 194 expr cos($f1 * 3.14159 / 2);
#X obj 244 194 expr sin($f1 * 3.14159 / 2);
#X obj 244 134 clip 0 1;
#N canvas 0 22 569 633 pan_core 0;
#X obj 21 106 inlet~;
#X obj 226 126 inlet;
#X obj 80 453 *~;
#X obj 144 497 outlet~;
#X obj 210 452 *~;
#X obj 226 428 line~;
#X obj 96 428 line~;
#X obj 96 127 inlet;
#X obj 179 104 inlet~;
#X text 244 544 comment;
#X obj 96 389 pack f 5;
#X obj 226 389 pack f 5;
#X text 223 540 Hans-Christoph Steiner \, 2004;
#X text 223 526 Adapted from [pan_core~];
#X connect 0 0 2 0;
#X connect 1 0 11 0;
#X connect 2 0 3 0;
#X connect 4 0 3 0;
#X connect 5 0 4 1;
#X connect 6 0 2 1;
#X connect 7 0 10 0;
#X connect 8 0 4 0;
#X connect 10 0 6 0;
#X connect 11 0 5 0;
#X restore 39 266 pd pan_core;
#X text 256 437 Adapted from [equal_power_pan~] \, Hans-Christoph Steiner
\, 2004;
#X text 411 449 comment;
#X obj 128 46 inlet~;
#X connect 0 0 8 0;
#X connect 1 0 7 0;
#X connect 3 0 4 0;
#X connect 4 0 7 0;
#X connect 5 0 8 1;
#X connect 6 0 8 3;
#X connect 7 0 5 0;
#X connect 7 0 6 0;
#X connect 8 0 2 0;
#X connect 11 0 8 2;
#X restore 1394 594 pd equal_power_crossfade;
#X obj 1443 242 noise~;
#X obj 1486 27 r list1;
#X obj 1499 316 bp~ 220 1;
#X text 1565 310 bandpass filter;
#X obj 1599 171 r list1;
#X obj 1509 176 * 16000;
#X obj 1600 243 * 50;
#X obj 1488 56 route /fm/modulator;
#X msg 1667 250 10;
#X obj 416 333 * 4000;
#X obj 1601 200 route /fm/modulator;
#X obj 695 391 catch~ fm_fm;
#X obj 685 425 *~ 1000;
#X obj 578 101 +;
#X obj 664 7 catch~ fm_amount;
#X obj 706 74 metro 10;
#X obj 705 33 loadbang;
#X obj 765 46 tgl 15 0 empty empty empty 17 7 0 10 -262144 -1 -1 1
1;
#X obj 709 107 snapshot~;
#X floatatom 688 135 5 0 0 0 - - -, f 5;
#X obj 591 72 bng 15 250 50 0 empty empty empty 17 7 0 10 -262144 -1
-1;
#X text 1478 548 bandpass filtered noise;
#X text 1357 573 sine;
#X obj 1154 203 catch~ fm_mod_fm;
#X obj 1190 351 snapshot~;
#X obj 1136 306 metro 10;
#X obj 1120 280 tgl 15 0 empty empty empty 17 7 0 10 -262144 -1 -1
1 1;
#X obj 1064 251 loadbang;
#X floatatom 1222 380 5 0 0 0 - - -, f 5;
#X obj 1315 374 +;
#X obj 1274 345 bng 15 250 50 0 empty empty empty 17 7 0 10 -262144
-1 -1;
#X obj 495 -27 send toGUI;
#X obj 492 -98 loadbang;
#X msg 495 -52 list /fm/amount \$1;
#X obj 1004 46 send toGUI;
#X obj 1001 -25 loadbang;
#X msg 1004 21 list /4/decay \$1;
#X obj 1487 -9 send toGUI;
#X obj 1484 -80 loadbang;
#X msg 1487 -34 list /fm/modulator \$1;
#X msg 1490 -52 0.5;
#X obj 1599 429 send toGUI;
#X obj 1596 358 loadbang;
#X msg 1599 404 list /fm_mod/wavetype \$1;
#X msg 1602 386 0.2;
#X obj 686 643 send toGUI;
#X obj 683 572 loadbang;
#X msg 686 618 list /fm/wavetype \$1;
#X msg 687 596 0.5;
#X obj 286 299 send toGUI;
#X obj 283 228 loadbang;
#X msg 286 274 list /fm/carrier \$1;
#X msg 287 252 0.1;
#X obj 202 52 send toGUI;
#X obj 199 -19 loadbang;
#X msg 202 27 list /3/decay \$1;
#X msg 1003 0 0.1;
#X msg 200 7 0.35;
#X msg 494 -73 0.3;
#X obj 488 672 r eg3;
#X obj 438 705 *~;
#X connect 0 0 1 0;
#X connect 1 0 8 0;
#X connect 1 0 24 0;
#X connect 2 0 14 0;
#X connect 3 0 0 0;
#X connect 4 0 15 0;
#X connect 5 0 0 0;
#X connect 8 0 9 0;
#X connect 9 0 2 0;
#X connect 10 0 3 0;
#X connect 11 0 5 0;
#X connect 12 0 21 0;
#X connect 13 0 22 0;
#X connect 14 0 10 0;
#X connect 15 0 11 0;
#X connect 16 0 17 0;
#X connect 17 0 14 0;
#X connect 18 0 25 0;
#X connect 19 0 90 0;
#X connect 22 0 75 0;
#X connect 23 0 4 0;
#X connect 25 0 19 0;
#X connect 26 0 27 0;
#X connect 27 0 34 0;
#X connect 27 0 50 0;
#X connect 28 0 39 0;
#X connect 29 0 26 0;
#X connect 30 0 40 0;
#X connect 31 0 26 0;
#X connect 34 0 35 0;
#X connect 35 0 28 0;
#X connect 36 0 31 0;
#X connect 37 0 48 0;
#X connect 38 0 49 0;
#X connect 39 0 29 0;
#X connect 40 0 36 0;
#X connect 41 0 42 0;
#X connect 42 0 39 0;
#X connect 43 0 80 0;
#X connect 44 0 51 0;
#X connect 45 0 110 0;
#X connect 47 0 30 0;
#X connect 49 0 76 0;
#X connect 51 0 45 0;
#X connect 53 0 68 0;
#X connect 53 0 73 0;
#X connect 58 0 59 1;
#X connect 59 0 65 0;
#X connect 60 0 58 0;
#X connect 61 0 58 1;
#X connect 62 0 63 0;
#X connect 63 0 94 0;
#X connect 64 0 59 0;
#X connect 65 0 53 1;
#X connect 67 0 43 0;
#X connect 67 0 46 0;
#X connect 68 0 72 0;
#X connect 69 0 70 0;
#X connect 70 0 71 0;
#X connect 71 0 72 2;
#X connect 72 0 141 0;
#X connect 73 0 72 1;
#X connect 74 0 64 0;
#X connect 75 0 14 0;
#X connect 76 0 39 0;
#X connect 77 0 79 0;
#X connect 78 0 80 2;
#X connect 79 0 78 0;
#X connect 80 0 52 0;
#X connect 81 0 83 0;
#X connect 82 0 88 0;
#X connect 83 0 80 1;
#X connect 85 0 91 0;
#X connect 86 0 83 1;
#X connect 87 0 83 2;
#X connect 88 0 86 0;
#X connect 89 0 83 2;
#X connect 90 0 20 0;
#X connect 90 0 53 0;
#X connect 91 0 87 0;
#X connect 92 0 93 0;
#X connect 93 0 53 1;
#X connect 94 0 74 0;
#X connect 95 0 99 0;
#X connect 96 0 99 0;
#X connect 97 0 98 0;
#X connect 98 0 96 0;
#X connect 99 0 100 0;
#X connect 100 0 94 1;
#X connect 100 0 101 0;
#X connect 101 0 94 0;
#X connect 104 0 105 0;
#X connect 105 0 109 0;
#X connect 106 0 105 0;
#X connect 107 0 106 0;
#X connect 108 0 107 0;
#X connect 109 0 110 1;
#X connect 109 0 111 0;
#X connect 110 0 67 0;
#X connect 111 0 110 0;
#X connect 113 0 139 0;
#X connect 114 0 112 0;
#X connect 116 0 137 0;
#X connect 117 0 115 0;
#X connect 119 0 121 0;
#X connect 120 0 118 0;
#X connect 121 0 120 0;
#X connect 123 0 125 0;
#X connect 124 0 122 0;
#X connect 125 0 124 0;
#X connect 127 0 129 0;
#X connect 128 0 126 0;
#X connect 129 0 128 0;
#X connect 131 0 133 0;
#X connect 132 0 130 0;
#X connect 133 0 132 0;
#X connect 135 0 138 0;
#X connect 136 0 134 0;
#X connect 137 0 117 0;
#X connect 138 0 136 0;
#X connect 139 0 114 0;
#X connect 140 0 141 1;
#X connect 141 0 66 0;
#X restore 456 56 pd fm;
#X obj 461 116 *~ 0.25;
#X obj 456 88 r~ fm;
#X text 11 10 repurposed from "pd drum machine" circa 2016 - Chris
Beckstrom, f 22;
#X connect 1 0 10 0;
#X connect 2 0 8 1;
#X connect 4 0 5 0;
#X connect 5 0 6 0;
#X connect 5 1 7 0;
#X connect 6 0 8 0;
#X connect 7 0 8 0;
#X connect 8 0 3 0;
#X connect 8 0 3 1;
#X connect 10 0 2 0;
#X connect 12 0 2 0;
#X connect 13 0 12 0;
