#N canvas 61 23 1342 735 10;
#X obj 601 34 udpreceive 3003;
#X obj 634 105 routeOSC /midi/iac_driver_bus_1/0/1/note_on;
#X obj 752 198 unpack f f;
#X floatatom 744 232 5 0 0 0 - - -, f 5;
#X floatatom 831 226 5 0 0 0 - - -, f 5;
#X obj 758 254 s notes;
#X obj 823 255 s vel;
#X obj 706 34 pd-mrpeach/net/udpreceive 3003;
#X obj 910 106 pd-mrpeach/osc/routeOSC /midi/iac_driver_bus_1/0/1/note_on
;
#X obj 444 92 print unpackedOSC:;
#X obj 635 73 pd-mrpeach/osc/unpackOSC;
#X obj 692 547 makenote 127 100;
#X obj 651 405 r notes;
#X obj 712 404 r vel;
#X obj 690 492 spigot;
#X msg 711 456 1;
#X msg 747 457 0;
#X obj 712 431 sel 64;
#X obj 823 546 makenote 127 100;
#X obj 782 404 r notes;
#X obj 843 403 r vel;
#X obj 821 491 spigot;
#X msg 842 455 1;
#X msg 878 456 0;
#X obj 843 430 sel 64;
#X obj 957 546 makenote 127 100;
#X obj 916 404 r notes;
#X obj 977 403 r vel;
#X obj 955 491 spigot;
#X msg 976 455 1;
#X msg 1012 456 0;
#X obj 977 430 sel 64;
#X obj 1087 548 makenote 127 100;
#X obj 1046 406 r notes;
#X obj 1107 405 r vel;
#X obj 1085 493 spigot;
#X msg 1106 457 1;
#X msg 1142 458 0;
#X obj 1107 432 sel 64;
#X obj 571 547 makenote 127 100;
#X obj 530 405 r notes;
#X obj 591 404 r vel;
#X obj 569 492 spigot;
#X msg 590 456 1;
#X msg 626 457 0;
#X obj 591 431 sel 64;
#X msg 438 517 36;
#X obj 439 547 makenote 127 100;
#X obj 397 431 sel 36;
#X obj 398 405 r notes;
#X obj 459 404 r vel;
#X obj 437 492 spigot;
#X msg 458 456 1;
#X msg 494 457 0;
#X obj 459 431 sel 64;
#X obj 529 431 sel 38;
#X obj 650 431 sel 40;
#X obj 781 430 sel 41;
#X obj 915 430 sel 43;
#X obj 1045 432 sel 45;
#X msg 570 517 38;
#X msg 691 517 40;
#X msg 822 516 41;
#X msg 956 516 43;
#X msg 1086 518 45;
#X connect 0 0 10 0;
#X connect 1 0 2 0;
#X connect 2 0 3 0;
#X connect 2 0 5 0;
#X connect 2 1 4 0;
#X connect 2 1 6 0;
#X connect 7 0 10 0;
#X connect 8 0 2 0;
#X connect 10 0 1 0;
#X connect 10 0 8 0;
#X connect 12 0 56 0;
#X connect 13 0 17 0;
#X connect 14 0 61 0;
#X connect 15 0 14 1;
#X connect 16 0 14 1;
#X connect 17 0 15 0;
#X connect 17 1 16 0;
#X connect 19 0 57 0;
#X connect 20 0 24 0;
#X connect 21 0 62 0;
#X connect 22 0 21 1;
#X connect 23 0 21 1;
#X connect 24 0 22 0;
#X connect 24 1 23 0;
#X connect 26 0 58 0;
#X connect 27 0 31 0;
#X connect 28 0 63 0;
#X connect 29 0 28 1;
#X connect 30 0 28 1;
#X connect 31 0 29 0;
#X connect 31 1 30 0;
#X connect 33 0 59 0;
#X connect 34 0 38 0;
#X connect 35 0 64 0;
#X connect 36 0 35 1;
#X connect 37 0 35 1;
#X connect 38 0 36 0;
#X connect 38 1 37 0;
#X connect 40 0 55 0;
#X connect 41 0 45 0;
#X connect 42 0 60 0;
#X connect 43 0 42 1;
#X connect 44 0 42 1;
#X connect 45 0 43 0;
#X connect 45 1 44 0;
#X connect 46 0 47 0;
#X connect 48 0 51 0;
#X connect 49 0 48 0;
#X connect 50 0 54 0;
#X connect 51 0 46 0;
#X connect 52 0 51 1;
#X connect 53 0 51 1;
#X connect 54 0 52 0;
#X connect 54 1 53 0;
#X connect 55 0 42 0;
#X connect 56 0 14 0;
#X connect 57 0 21 0;
#X connect 58 0 28 0;
#X connect 59 0 35 0;
#X connect 60 0 39 0;
#X connect 61 0 11 0;
#X connect 62 0 18 0;
#X connect 63 0 25 0;
#X connect 64 0 32 0;
