#N canvas 574 23 452 414 10;
#X obj 94 169 noteout;
#X floatatom 94 97 5 0 127 0 - - -, f 5;
#X obj 110 50 bng 15 250 50 0 empty empty empty 17 7 0 10 -262144 -1
-1;
#X msg 152 35 99;
#X msg 202 77 36;
#X obj 212 46 metro 200;
#X obj 206 13 tgl 15 0 empty empty empty 17 7 0 10 -262144 -1 -1 0
1;
#X msg 252 87 41;
#X obj 94 122 makenote 127 20;
#X connect 1 0 8 0;
#X connect 2 0 1 0;
#X connect 3 0 8 0;
#X connect 4 0 8 0;
#X connect 5 0 4 0;
#X connect 5 0 7 0;
#X connect 6 0 5 0;
#X connect 7 0 8 0;
#X connect 8 0 0 0;
#X connect 8 1 0 1;
