#N canvas 9 23 1342 735 10;
#X obj 65 236 noteout;
#X floatatom 16 110 5 0 127 0 - - -, f 5;
#X obj 10 80 bng 15 250 50 0 empty empty empty 17 7 0 10 -262144 -1
-1;
#X msg 123 35 99;
#X msg 173 77 36;
#X obj 177 13 tgl 15 0 empty empty empty 17 7 0 10 -262144 -1 -1 0
1;
#X msg 274 87 41;
#X msg 224 80 38;
#X obj 183 46 metro 90;
#X obj 428 40 udpreceive 3003;
#X obj 461 111 routeOSC /midi/iac_driver_bus_1/0/1/note_on;
#X obj 579 204 unpack f f;
#X floatatom 571 238 5 0 0 0 - - -, f 5;
#X floatatom 658 232 5 0 0 0 - - -, f 5;
#X obj 585 260 s notes;
#X obj 650 261 s vel;
#X obj 65 189 makenote 64 200;
#X obj 533 40 pd-mrpeach/net/udpreceive 3003;
#X obj 737 112 pd-mrpeach/osc/routeOSC /midi/iac_driver_bus_1/0/1/note_on
;
#X obj 331 113 print unpackedOSC:;
#X obj 105 433 print 36bang:;
#X obj 462 79 pd-mrpeach/osc/unpackOSC;
#X obj 695 588 noteout;
#X obj 692 547 makenote 127 100;
#X obj 651 405 r notes;
#X obj 712 404 r vel;
#X obj 690 492 spigot;
#X msg 711 456 1;
#X msg 747 457 0;
#X obj 712 431 sel 64;
#X obj 826 587 noteout;
#X obj 823 546 makenote 127 100;
#X obj 782 404 r notes;
#X obj 843 403 r vel;
#X obj 821 491 spigot;
#X msg 842 455 1;
#X msg 878 456 0;
#X obj 843 430 sel 64;
#X obj 960 587 noteout;
#X obj 957 546 makenote 127 100;
#X obj 916 404 r notes;
#X obj 977 403 r vel;
#X obj 955 491 spigot;
#X msg 976 455 1;
#X msg 1012 456 0;
#X obj 977 430 sel 64;
#X obj 1090 589 noteout;
#X obj 1087 548 makenote 127 100;
#X obj 1046 406 r notes;
#X obj 1107 405 r vel;
#X obj 1085 493 spigot;
#X msg 1106 457 1;
#X msg 1142 458 0;
#X obj 1107 432 sel 64;
#X obj 574 588 noteout;
#X obj 571 547 makenote 127 100;
#X obj 530 405 r notes;
#X obj 591 404 r vel;
#X obj 569 492 spigot;
#X msg 590 456 1;
#X msg 626 457 0;
#X obj 591 431 sel 64;
#X obj 442 588 noteout;
#X msg 438 517 36;
#X obj 439 547 makenote 127 100;
#X obj 397 431 sel 36;
#X obj 398 405 r notes;
#X obj 459 404 r vel;
#X obj 437 492 spigot;
#X msg 458 456 1;
#X msg 494 457 0;
#X obj 459 431 sel 64;
#X obj 529 431 sel 38;
#X obj 650 431 sel 40;
#X obj 781 430 sel 41;
#X obj 915 430 sel 43;
#X obj 1045 432 sel 45;
#X msg 570 517 38;
#X msg 691 517 40;
#X msg 822 516 41;
#X msg 956 516 43;
#X msg 1086 518 45;
#X connect 1 0 16 0;
#X connect 2 0 1 0;
#X connect 3 0 16 0;
#X connect 4 0 16 0;
#X connect 5 0 8 0;
#X connect 6 0 16 0;
#X connect 7 0 16 0;
#X connect 8 0 4 0;
#X connect 8 0 6 0;
#X connect 8 0 7 0;
#X connect 9 0 21 0;
#X connect 10 0 11 0;
#X connect 11 0 12 0;
#X connect 11 0 14 0;
#X connect 11 1 13 0;
#X connect 11 1 15 0;
#X connect 16 0 0 0;
#X connect 16 1 0 1;
#X connect 17 0 21 0;
#X connect 18 0 11 0;
#X connect 21 0 10 0;
#X connect 21 0 18 0;
#X connect 23 0 22 0;
#X connect 23 1 22 1;
#X connect 24 0 73 0;
#X connect 25 0 29 0;
#X connect 26 0 78 0;
#X connect 27 0 26 1;
#X connect 28 0 26 1;
#X connect 29 0 27 0;
#X connect 29 1 28 0;
#X connect 31 0 30 0;
#X connect 31 1 30 1;
#X connect 32 0 74 0;
#X connect 33 0 37 0;
#X connect 34 0 79 0;
#X connect 35 0 34 1;
#X connect 36 0 34 1;
#X connect 37 0 35 0;
#X connect 37 1 36 0;
#X connect 39 0 38 0;
#X connect 39 1 38 1;
#X connect 40 0 75 0;
#X connect 41 0 45 0;
#X connect 42 0 80 0;
#X connect 43 0 42 1;
#X connect 44 0 42 1;
#X connect 45 0 43 0;
#X connect 45 1 44 0;
#X connect 47 0 46 0;
#X connect 47 1 46 1;
#X connect 48 0 76 0;
#X connect 49 0 53 0;
#X connect 50 0 81 0;
#X connect 51 0 50 1;
#X connect 52 0 50 1;
#X connect 53 0 51 0;
#X connect 53 1 52 0;
#X connect 55 0 54 0;
#X connect 55 1 54 1;
#X connect 56 0 72 0;
#X connect 57 0 61 0;
#X connect 58 0 77 0;
#X connect 59 0 58 1;
#X connect 60 0 58 1;
#X connect 61 0 59 0;
#X connect 61 1 60 0;
#X connect 63 0 64 0;
#X connect 64 0 62 0;
#X connect 64 1 62 1;
#X connect 65 0 68 0;
#X connect 66 0 65 0;
#X connect 67 0 71 0;
#X connect 68 0 63 0;
#X connect 69 0 68 1;
#X connect 70 0 68 1;
#X connect 71 0 69 0;
#X connect 71 1 70 0;
#X connect 72 0 58 0;
#X connect 73 0 26 0;
#X connect 74 0 34 0;
#X connect 75 0 42 0;
#X connect 76 0 50 0;
#X connect 77 0 55 0;
#X connect 78 0 23 0;
#X connect 79 0 31 0;
#X connect 80 0 39 0;
#X connect 81 0 47 0;
