#N canvas 664 51 828 818 10;
#N canvas 807 165 947 692 4leds 0;
#X obj 100 210 dec_to_binary;
#X floatatom 156 87 5 0 15 0 - - -, f 5;
#X obj 100 240 tgl 15 0 empty empty empty 17 7 0 10 -262144 -1 -1 0
1;
#X obj 130 240 tgl 15 0 empty empty empty 17 7 0 10 -262144 -1 -1 0
1;
#X obj 163 240 tgl 15 0 empty empty empty 17 7 0 10 -262144 -1 -1 0
1;
#X obj 192 240 tgl 15 0 empty empty empty 17 7 0 10 -262144 -1 -1 1
1;
#X obj 95 53 inlet;
#X text 138 29 send a number in the inlet and the 4 leds will display
that in 4 bit binary (0-15);
#X obj 102 281 pdwiringPi/pdwiringPi/wiringPi pin 23 output;
#X obj 127 312 pdwiringPi/pdwiringPi/wiringPi pin 18 output;
#X obj 163 343 pdwiringPi/pdwiringPi/wiringPi pin 15 output;
#X obj 201 377 pdwiringPi/pdwiringPi/wiringPi pin 14 output;
#X obj 84 629 s to_phone;
#X msg 39 457 /program/bit1 \$1;
#X msg 75 488 /program/bit2 \$1;
#X msg 133 520 /program/bit3 \$1;
#X msg 192 548 /program/bit4 \$1;
#X connect 0 0 2 0;
#X connect 0 1 3 0;
#X connect 0 2 4 0;
#X connect 0 3 5 0;
#X connect 2 0 8 0;
#X connect 2 0 13 0;
#X connect 3 0 9 0;
#X connect 3 0 14 0;
#X connect 4 0 10 0;
#X connect 4 0 15 0;
#X connect 5 0 11 0;
#X connect 5 0 16 0;
#X connect 6 0 1 0;
#X connect 6 0 0 0;
#X connect 13 0 12 0;
#X connect 14 0 12 0;
#X connect 15 0 12 0;
#X connect 16 0 12 0;
#X restore 57 46 pd 4leds;
#N canvas 0 51 450 300 load_stuff 0;
#X obj 10 34 pdwiringPi/pdwiringPi/wiringPi;
#X text 4 9 load stuff;
#X obj 10 58 pd-mrpeach/osc/unpackOSC;
#X obj 10 82 pd-mrpeach/osc/packOSC;
#X obj 10 130 abl_link/external/abl_link~;
#X obj 10 156 pd-mrpeach/osc/routeOSC;
#X restore 56 -107 pd load_stuff;
#N canvas 586 51 1071 821 16ths 0;
#X obj 51 39 tgl 15 0 empty empty empty 17 7 0 10 -262144 -1 -1 0 1
;
#X obj 51 66 metro 100;
#X obj 477 36 r link_step;
#X obj 488 350 noteout;
#X msg 484 279 45;
#X obj 207 388 noteout;
#X msg 203 317 43;
#X obj 204 54 r link_reset;
#X obj 554 268 bng 15 250 50 0 empty empty empty 17 7 0 10 -262144
-1 -1;
#X obj 510 62 bng 15 250 50 0 empty empty empty 17 7 0 10 -262144 -1
-1;
#X obj 627 76 r send16ths;
#X obj 617 104 tgl 15 0 empty empty empty 17 7 0 10 -262144 -1 -1 0
1;
#X obj 503 127 spigot;
#X obj 588 205 bng 15 250 50 0 empty empty empty 17 7 0 10 -262144
-1 -1;
#X obj 318 88 r sendReset;
#X obj 311 126 tgl 15 0 empty empty empty 17 7 0 10 -262144 -1 -1 0
1;
#X obj 250 159 spigot;
#X obj 335 237 bng 15 250 50 0 empty empty empty 17 7 0 10 -262144
-1 -1;
#X obj 485 309 makenote 127 50;
#X obj 204 347 makenote 127 50;
#X connect 0 0 1 0;
#X connect 2 0 9 0;
#X connect 2 0 12 0;
#X connect 4 0 18 0;
#X connect 6 0 19 0;
#X connect 7 0 16 0;
#X connect 10 0 11 0;
#X connect 11 0 12 1;
#X connect 12 0 4 0;
#X connect 12 0 13 0;
#X connect 14 0 15 0;
#X connect 15 0 16 1;
#X connect 16 0 17 0;
#X connect 16 0 6 0;
#X connect 18 0 3 0;
#X connect 18 1 3 1;
#X connect 19 0 5 0;
#X connect 19 1 5 1;
#X restore 62 112 pd 16ths;
#N canvas 0 51 450 300 reset 0;
#X obj 121 200 bng 15 250 50 0 empty empty empty 17 7 0 10 -262144
-1 -1;
#X obj 220 83 r link_step;
#X obj 90 352 s to_osc;
#X msg 84 167 /12 1;
#X msg 130 267 /12 0;
#X obj 67 140 bng 15 250 50 0 empty empty empty 17 7 0 10 -262144 -1
-1;
#X obj 221 110 sel 0;
#X obj 191 128 bng 15 50 10 0 empty empty empty 17 7 0 10 -262144 -1
-1;
#X obj 130 226 del 10;
#X connect 0 0 8 0;
#X connect 1 0 6 0;
#X connect 3 0 0 0;
#X connect 3 0 2 0;
#X connect 4 0 2 0;
#X connect 5 0 3 0;
#X connect 6 0 7 0;
#X connect 8 0 4 0;
#X restore 62 132 pd reset;
#X text 126 113 send 16th note pulses to pin 13;
#X text 127 132 send pulse to pin 12 on step = 0;
#N canvas 214 147 1203 650 network 0;
#X obj 24 83 unpackOSC;
#X obj 18 29 mac_externals/mrpeach/udpreceive 3003;
#X obj 303 29 pd-mrpeach/net/udpreceive 3003;
#X text 15 7 mac network connect;
#X obj 179 143 s to_osc;
#X text 303 9 rpi network connect;
#X obj 13 281 mac_externals/mrpeach/routeOSC /g1;
#X obj 28 306 pd-mrpeach/osc/routeOSC /g1;
#X obj 25 381 s g1;
#X obj 80 342 mac_externals/mrpeach/routeOSC /g2;
#X obj 95 367 pd-mrpeach/osc/routeOSC /g2;
#X obj 92 442 s g2;
#X obj 144 405 mac_externals/mrpeach/routeOSC /g3;
#X obj 159 430 pd-mrpeach/osc/routeOSC /g3;
#X obj 156 505 s g3;
#X obj 204 468 mac_externals/mrpeach/routeOSC /g4;
#X obj 228 496 pd-mrpeach/osc/routeOSC /g4;
#X obj 216 568 s g4;
#X obj 274 143 print udpreceive:;
#X obj 709 189 packOSC;
#X obj 800 248 mac_externals/mrpeach/udpsend;
#X msg 837 149 disconnect;
#X text 912 95 connect to cbphone (repeatedly);
#X obj 595 191 s to_phone;
#X obj 707 156 r to_phone;
#X msg 590 104 /g1/1/1 1;
#X msg 669 105 /program \$1;
#X obj 668 51 r program;
#X text 1014 247 << mac;
#X obj 713 276 pd-mrpeach/net/udpsend;
#X text 893 278 << linux;
#X msg 827 120 connect 10.0.0.13 9000;
#X obj 487 78 r link_step;
#X msg 487 102 /seq/step \$1;
#X obj 534 558 pd-mrpeach/osc/routeOSC /clock/send16ths;
#X obj 534 588 tgl 15 0 empty empty empty 17 7 0 10 -262144 -1 -1 0
1;
#X obj 533 528 r to_osc;
#X obj 534 613 s send16ths;
#X msg 475 498 /clock/send16ths 1;
#X obj 477 470 loadbang;
#X obj 890 585 tgl 15 0 empty empty empty 17 7 0 10 -262144 -1 -1 0
1;
#X obj 889 525 r to_osc;
#X obj 833 467 loadbang;
#X msg 831 495 /clock/sendReset 1;
#X obj 890 555 pd-mrpeach/osc/routeOSC /clock/sendReset;
#X obj 890 610 s sendReset;
#X text 557 579 toggle sending of 16th note clock to arduino;
#X text 912 575 toggle sending of downbeat pulse to arduino;
#X obj 831 -25 loadbang;
#X obj 832 1 del 500;
#X obj 838 70 metro 10000;
#X obj 837 37 tgl 15 0 empty empty empty 17 7 0 10 -262144 -1 -1 1
1;
#X connect 0 0 4 0;
#X connect 0 0 6 0;
#X connect 0 0 7 0;
#X connect 0 0 9 0;
#X connect 0 0 12 0;
#X connect 0 0 10 0;
#X connect 0 0 13 0;
#X connect 0 0 15 0;
#X connect 0 0 16 0;
#X connect 0 0 18 0;
#X connect 1 0 0 0;
#X connect 2 0 0 0;
#X connect 6 0 8 0;
#X connect 7 0 8 0;
#X connect 9 0 11 0;
#X connect 10 0 11 0;
#X connect 12 0 14 0;
#X connect 13 0 14 0;
#X connect 15 0 17 0;
#X connect 16 0 17 0;
#X connect 19 0 20 0;
#X connect 19 0 29 0;
#X connect 21 0 20 0;
#X connect 21 0 29 0;
#X connect 24 0 19 0;
#X connect 25 0 23 0;
#X connect 26 0 23 0;
#X connect 27 0 26 0;
#X connect 31 0 20 0;
#X connect 31 0 29 0;
#X connect 32 0 33 0;
#X connect 33 0 23 0;
#X connect 34 0 35 0;
#X connect 35 0 37 0;
#X connect 36 0 34 0;
#X connect 38 0 35 0;
#X connect 39 0 38 0;
#X connect 40 0 45 0;
#X connect 41 0 44 0;
#X connect 42 0 43 0;
#X connect 43 0 40 0;
#X connect 44 0 40 0;
#X connect 48 0 49 0;
#X connect 49 0 51 0;
#X connect 50 0 31 0;
#X connect 51 0 50 0;
#X restore 56 -81 pd network;
#N canvas 0 51 1418 827 sequencer_matrix 0;
#X obj 544 -321 float;
#X obj 551 2 hradio 16 1 0 16 empty empty empty 0 -8 0 10 -262144 -1
-1 8;
#X obj 551 28 select 0 1 2 3 4 5 6 7 8 9 10 11 12 13 14 15;
#X obj 181 162 spigot;
#X obj 204 103 r g1s1;
#X floatatom 210 140 5 0 0 0 - - -, f 5;
#X obj 241 162 spigot;
#X floatatom 270 140 5 0 0 0 - - -, f 5;
#X obj 243 189 s gate1;
#X obj 300 163 spigot;
#X floatatom 329 141 5 0 0 0 - - -, f 5;
#X obj 302 190 s gate1;
#X obj 360 163 spigot;
#X floatatom 389 141 5 0 0 0 - - -, f 5;
#X obj 362 190 s gate1;
#X obj 264 103 r g1s2;
#X obj 323 104 r g1s3;
#X obj 383 104 r g1s4;
#X obj 429 164 spigot;
#X floatatom 458 142 5 0 0 0 - - -, f 5;
#X obj 431 191 s gate1;
#X obj 489 164 spigot;
#X floatatom 518 142 5 0 0 0 - - -, f 5;
#X obj 491 191 s gate1;
#X obj 548 165 spigot;
#X floatatom 577 143 5 0 0 0 - - -, f 5;
#X obj 550 192 s gate1;
#X obj 608 165 spigot;
#X floatatom 637 143 5 0 0 0 - - -, f 5;
#X obj 610 192 s gate1;
#X obj 452 105 r g1s5;
#X obj 512 105 r g1s6;
#X obj 571 106 r g1s7;
#X obj 631 106 r g1s8;
#X obj 668 165 spigot;
#X floatatom 697 143 5 0 0 0 - - -, f 5;
#X obj 670 192 s gate1;
#X obj 728 165 spigot;
#X floatatom 757 143 5 0 0 0 - - -, f 5;
#X obj 730 192 s gate1;
#X obj 787 166 spigot;
#X floatatom 816 144 5 0 0 0 - - -, f 5;
#X obj 789 193 s gate1;
#X obj 847 166 spigot;
#X floatatom 876 144 5 0 0 0 - - -, f 5;
#X obj 849 193 s gate1;
#X obj 916 167 spigot;
#X floatatom 945 145 5 0 0 0 - - -, f 5;
#X obj 918 194 s gate1;
#X obj 976 167 spigot;
#X floatatom 1005 145 5 0 0 0 - - -, f 5;
#X obj 978 194 s gate1;
#X obj 1055 168 spigot;
#X floatatom 1084 146 5 0 0 0 - - -, f 5;
#X obj 1057 195 s gate1;
#X obj 1154 168 spigot;
#X floatatom 1183 146 5 0 0 0 - - -, f 5;
#X obj 1156 195 s gate1;
#X obj 691 106 r g1s9;
#X obj 751 106 r g1s10;
#X obj 810 107 r g1s11;
#X obj 870 107 r g1s12;
#X obj 939 108 r g1s13;
#X obj 999 108 r g1s14;
#X obj 1093 109 r g1s15;
#X obj 1177 109 r g1s16;
#X text 442 -429 reset;
#X floatatom 546 -244 5 0 0 0 - - -, f 5;
#X floatatom 727 -322 5 1 16 0 - - -, f 5;
#X text 761 -324 length;
#X obj 821 -223 send toGUI;
#X msg 819 -252 list /seq1/step \$1;
#X obj 424 -500 r list1;
#X obj 426 -475 route /seq1/reset;
#X obj 585 -245 s seq1step;
#N canvas 57 77 1269 585 seq1_toggles 0;
#X obj 561 -265 s g1s1;
#X obj 566 -287 tgl 15 0 empty empty empty 17 7 0 10 -262144 -1 -1
0 1;
#X obj 674 -290 tgl 15 0 empty empty empty 17 7 0 10 -262144 -1 -1
0 1;
#X obj 673 -266 s g1s2;
#X obj 777 -301 tgl 15 0 empty empty empty 17 7 0 10 -262144 -1 -1
0 1;
#X obj 871 -299 tgl 15 0 empty empty empty 17 7 0 10 -262144 -1 -1
0 1;
#X obj 775 -273 s g1s3;
#X obj 869 -271 s g1s4;
#X obj 623 -128 tgl 15 0 empty empty empty 17 7 0 10 -262144 -1 -1
0 1;
#X obj 672 -128 tgl 15 0 empty empty empty 17 7 0 10 -262144 -1 -1
0 1;
#X obj 727 -128 tgl 15 0 empty empty empty 17 7 0 10 -262144 -1 -1
0 1;
#X obj 775 -128 tgl 15 0 empty empty empty 17 7 0 10 -262144 -1 -1
0 1;
#X obj 621 -100 s g1s5;
#X obj 670 -100 s g1s6;
#X obj 725 -100 s g1s7;
#X obj 773 -100 s g1s8;
#X obj 641 38 tgl 15 0 empty empty empty 17 7 0 10 -262144 -1 -1 0
1;
#X obj 690 38 tgl 15 0 empty empty empty 17 7 0 10 -262144 -1 -1 0
1;
#X obj 745 38 tgl 15 0 empty empty empty 17 7 0 10 -262144 -1 -1 0
1;
#X obj 793 38 tgl 15 0 empty empty empty 17 7 0 10 -262144 -1 -1 0
1;
#X obj 638 235 tgl 15 0 empty empty empty 17 7 0 10 -262144 -1 -1 0
1;
#X obj 687 235 tgl 15 0 empty empty empty 17 7 0 10 -262144 -1 -1 0
1;
#X obj 742 235 tgl 15 0 empty empty empty 17 7 0 10 -262144 -1 -1 0
1;
#X obj 844 236 tgl 15 0 empty empty empty 17 7 0 10 -262144 -1 -1 0
1;
#X obj 639 66 s g1s9;
#X obj 688 66 s g1s10;
#X obj 743 66 s g1s11;
#X obj 791 66 s g1s12;
#X obj 636 263 s g1s13;
#X obj 685 263 s g1s14;
#X obj 740 263 s g1s15;
#X obj 842 264 s g1s16;
#X obj 556 -391 r list1;
#X obj 565 -367 route /seq1;
#X obj 563 -341 route 0;
#X obj 563 -313 route 0;
#X obj 665 -395 r list1;
#X obj 674 -371 route /seq1;
#X obj 672 -345 route 1;
#X obj 672 -317 route 0;
#X obj 776 -409 r list1;
#X obj 785 -385 route /seq1;
#X obj 783 -331 route 0;
#X obj 783 -359 route 2;
#X obj 869 -406 r list1;
#X obj 878 -382 route /seq1;
#X obj 876 -328 route 0;
#X obj 876 -356 route 3;
#X obj 570 -232 r list1;
#X obj 579 -208 route /seq1;
#X obj 577 -154 route 0;
#X obj 577 -182 route 4;
#X obj 662 -233 r list1;
#X obj 671 -209 route /seq1;
#X obj 669 -155 route 0;
#X obj 669 -183 route 5;
#X obj 750 -237 r list1;
#X obj 759 -213 route /seq1;
#X obj 757 -159 route 0;
#X obj 757 -187 route 6;
#X obj 840 -234 r list1;
#X obj 849 -210 route /seq1;
#X obj 847 -156 route 0;
#X obj 847 -184 route 7;
#X obj 567 -68 r list1;
#X obj 576 -44 route /seq1;
#X obj 574 10 route 0;
#X obj 574 -18 route 8;
#X obj 651 -68 r list1;
#X obj 660 -44 route /seq1;
#X obj 658 10 route 0;
#X obj 658 -18 route 9;
#X obj 731 -72 r list1;
#X obj 740 -48 route /seq1;
#X obj 738 6 route 0;
#X obj 738 -22 route 10;
#X obj 846 -68 r list1;
#X obj 855 -44 route /seq1;
#X obj 853 10 route 0;
#X obj 853 -18 route 11;
#X obj 573 103 r list1;
#X obj 582 127 route /seq1;
#X obj 580 181 route 0;
#X obj 580 153 route 12;
#X obj 657 102 r list1;
#X obj 666 126 route /seq1;
#X obj 664 180 route 0;
#X obj 664 152 route 13;
#X obj 744 103 r list1;
#X obj 753 127 route /seq1;
#X obj 751 181 route 0;
#X obj 751 153 route 14;
#X obj 832 104 r list1;
#X obj 841 128 route /seq1;
#X obj 839 182 route 0;
#X obj 839 154 route 15;
#X connect 1 0 0 0;
#X connect 2 0 3 0;
#X connect 4 0 6 0;
#X connect 5 0 7 0;
#X connect 8 0 12 0;
#X connect 9 0 13 0;
#X connect 10 0 14 0;
#X connect 11 0 15 0;
#X connect 16 0 24 0;
#X connect 17 0 25 0;
#X connect 18 0 26 0;
#X connect 19 0 27 0;
#X connect 20 0 28 0;
#X connect 21 0 29 0;
#X connect 22 0 30 0;
#X connect 23 0 31 0;
#X connect 32 0 33 0;
#X connect 33 0 34 0;
#X connect 34 0 35 0;
#X connect 35 0 1 0;
#X connect 36 0 37 0;
#X connect 37 0 38 0;
#X connect 38 0 39 0;
#X connect 39 0 2 0;
#X connect 40 0 41 0;
#X connect 41 0 43 0;
#X connect 42 0 4 0;
#X connect 43 0 42 0;
#X connect 44 0 45 0;
#X connect 45 0 47 0;
#X connect 46 0 5 0;
#X connect 47 0 46 0;
#X connect 48 0 49 0;
#X connect 49 0 51 0;
#X connect 50 0 8 0;
#X connect 51 0 50 0;
#X connect 52 0 53 0;
#X connect 53 0 55 0;
#X connect 54 0 9 0;
#X connect 55 0 54 0;
#X connect 56 0 57 0;
#X connect 57 0 59 0;
#X connect 58 0 10 0;
#X connect 59 0 58 0;
#X connect 60 0 61 0;
#X connect 61 0 63 0;
#X connect 62 0 11 0;
#X connect 63 0 62 0;
#X connect 64 0 65 0;
#X connect 65 0 67 0;
#X connect 66 0 16 0;
#X connect 67 0 66 0;
#X connect 68 0 69 0;
#X connect 69 0 71 0;
#X connect 70 0 17 0;
#X connect 71 0 70 0;
#X connect 72 0 73 0;
#X connect 73 0 75 0;
#X connect 74 0 18 0;
#X connect 75 0 74 0;
#X connect 76 0 77 0;
#X connect 77 0 79 0;
#X connect 78 0 19 0;
#X connect 79 0 78 0;
#X connect 80 0 81 0;
#X connect 81 0 83 0;
#X connect 82 0 20 0;
#X connect 83 0 82 0;
#X connect 84 0 85 0;
#X connect 85 0 87 0;
#X connect 86 0 21 0;
#X connect 87 0 86 0;
#X connect 88 0 89 0;
#X connect 89 0 91 0;
#X connect 90 0 22 0;
#X connect 91 0 90 0;
#X connect 92 0 93 0;
#X connect 93 0 95 0;
#X connect 94 0 23 0;
#X connect 95 0 94 0;
#X restore 62 105 pd seq1_toggles;
#X obj 559 -391 r clock;
#N canvas 122 50 1440 761 seq2_toggles 0;
#X obj 566 -287 tgl 15 0 empty empty empty 17 7 0 10 -262144 -1 -1
0 1;
#X obj 674 -290 tgl 15 0 empty empty empty 17 7 0 10 -262144 -1 -1
0 1;
#X obj 777 -301 tgl 15 0 empty empty empty 17 7 0 10 -262144 -1 -1
0 1;
#X obj 871 -299 tgl 15 0 empty empty empty 17 7 0 10 -262144 -1 -1
0 1;
#X obj 623 -128 tgl 15 0 empty empty empty 17 7 0 10 -262144 -1 -1
0 1;
#X obj 672 -128 tgl 15 0 empty empty empty 17 7 0 10 -262144 -1 -1
0 1;
#X obj 727 -128 tgl 15 0 empty empty empty 17 7 0 10 -262144 -1 -1
0 1;
#X obj 775 -128 tgl 15 0 empty empty empty 17 7 0 10 -262144 -1 -1
0 1;
#X obj 641 38 tgl 15 0 empty empty empty 17 7 0 10 -262144 -1 -1 0
1;
#X obj 690 38 tgl 15 0 empty empty empty 17 7 0 10 -262144 -1 -1 0
1;
#X obj 745 38 tgl 15 0 empty empty empty 17 7 0 10 -262144 -1 -1 0
1;
#X obj 793 38 tgl 15 0 empty empty empty 17 7 0 10 -262144 -1 -1 0
1;
#X obj 638 235 tgl 15 0 empty empty empty 17 7 0 10 -262144 -1 -1 0
1;
#X obj 687 235 tgl 15 0 empty empty empty 17 7 0 10 -262144 -1 -1 0
1;
#X obj 742 235 tgl 15 0 empty empty empty 17 7 0 10 -262144 -1 -1 0
1;
#X obj 844 236 tgl 15 0 empty empty empty 17 7 0 10 -262144 -1 -1 0
1;
#X obj 556 -391 r list1;
#X obj 563 -341 route 0;
#X obj 563 -313 route 0;
#X obj 665 -395 r list1;
#X obj 672 -345 route 1;
#X obj 672 -317 route 0;
#X obj 776 -409 r list1;
#X obj 783 -331 route 0;
#X obj 783 -359 route 2;
#X obj 869 -406 r list1;
#X obj 876 -328 route 0;
#X obj 876 -356 route 3;
#X obj 570 -232 r list1;
#X obj 577 -154 route 0;
#X obj 577 -182 route 4;
#X obj 662 -233 r list1;
#X obj 669 -155 route 0;
#X obj 669 -183 route 5;
#X obj 750 -237 r list1;
#X obj 757 -159 route 0;
#X obj 757 -187 route 6;
#X obj 840 -234 r list1;
#X obj 847 -156 route 0;
#X obj 847 -184 route 7;
#X obj 567 -68 r list1;
#X obj 574 10 route 0;
#X obj 574 -18 route 8;
#X obj 651 -68 r list1;
#X obj 658 10 route 0;
#X obj 658 -18 route 9;
#X obj 731 -72 r list1;
#X obj 738 6 route 0;
#X obj 738 -22 route 10;
#X obj 846 -68 r list1;
#X obj 853 10 route 0;
#X obj 853 -18 route 11;
#X obj 573 103 r list1;
#X obj 580 181 route 0;
#X obj 580 153 route 12;
#X obj 657 102 r list1;
#X obj 664 180 route 0;
#X obj 664 152 route 13;
#X obj 744 103 r list1;
#X obj 751 181 route 0;
#X obj 751 153 route 14;
#X obj 832 104 r list1;
#X obj 839 182 route 0;
#X obj 839 154 route 15;
#X obj 561 -265 s g2s1;
#X obj 673 -266 s g2s2;
#X obj 775 -273 s g2s3;
#X obj 869 -271 s g2s4;
#X obj 621 -100 s g2s5;
#X obj 670 -100 s g2s6;
#X obj 725 -100 s g2s7;
#X obj 773 -100 s g2s8;
#X obj 639 66 s g2s9;
#X obj 688 66 s g2s10;
#X obj 743 66 s g2s11;
#X obj 791 66 s g2s12;
#X obj 636 263 s g2s13;
#X obj 685 263 s g2s14;
#X obj 740 263 s g2s15;
#X obj 831 266 s g2s16;
#X obj 565 -367 route /seq2;
#X obj 674 -371 route /seq2;
#X obj 785 -385 route /seq2;
#X obj 878 -382 route /seq2;
#X obj 579 -208 route /seq2;
#X obj 671 -209 route /seq2;
#X obj 759 -213 route /seq2;
#X obj 849 -210 route /seq2;
#X obj 576 -44 route /seq2;
#X obj 660 -44 route /seq2;
#X obj 740 -48 route /seq2;
#X obj 855 -44 route /seq2;
#X obj 582 127 route /seq2;
#X obj 666 126 route /seq2;
#X obj 753 127 route /seq2;
#X obj 841 128 route /seq2;
#X connect 0 0 64 0;
#X connect 1 0 65 0;
#X connect 2 0 66 0;
#X connect 3 0 67 0;
#X connect 4 0 68 0;
#X connect 5 0 69 0;
#X connect 6 0 70 0;
#X connect 7 0 71 0;
#X connect 8 0 72 0;
#X connect 9 0 73 0;
#X connect 10 0 74 0;
#X connect 11 0 75 0;
#X connect 12 0 76 0;
#X connect 13 0 77 0;
#X connect 14 0 78 0;
#X connect 15 0 79 0;
#X connect 16 0 80 0;
#X connect 17 0 18 0;
#X connect 18 0 0 0;
#X connect 19 0 81 0;
#X connect 20 0 21 0;
#X connect 21 0 1 0;
#X connect 22 0 82 0;
#X connect 23 0 2 0;
#X connect 24 0 23 0;
#X connect 25 0 83 0;
#X connect 26 0 3 0;
#X connect 27 0 26 0;
#X connect 28 0 84 0;
#X connect 29 0 4 0;
#X connect 30 0 29 0;
#X connect 31 0 85 0;
#X connect 32 0 5 0;
#X connect 33 0 32 0;
#X connect 34 0 86 0;
#X connect 35 0 6 0;
#X connect 36 0 35 0;
#X connect 37 0 87 0;
#X connect 38 0 7 0;
#X connect 39 0 38 0;
#X connect 40 0 88 0;
#X connect 41 0 8 0;
#X connect 42 0 41 0;
#X connect 43 0 89 0;
#X connect 44 0 9 0;
#X connect 45 0 44 0;
#X connect 46 0 90 0;
#X connect 47 0 10 0;
#X connect 48 0 47 0;
#X connect 49 0 91 0;
#X connect 50 0 11 0;
#X connect 51 0 50 0;
#X connect 52 0 92 0;
#X connect 53 0 12 0;
#X connect 54 0 53 0;
#X connect 55 0 93 0;
#X connect 56 0 13 0;
#X connect 57 0 56 0;
#X connect 58 0 94 0;
#X connect 59 0 14 0;
#X connect 60 0 59 0;
#X connect 61 0 95 0;
#X connect 62 0 15 0;
#X connect 63 0 62 0;
#X connect 80 0 17 0;
#X connect 81 0 20 0;
#X connect 82 0 24 0;
#X connect 83 0 27 0;
#X connect 84 0 30 0;
#X connect 85 0 33 0;
#X connect 86 0 36 0;
#X connect 87 0 39 0;
#X connect 88 0 42 0;
#X connect 89 0 45 0;
#X connect 90 0 48 0;
#X connect 91 0 51 0;
#X connect 92 0 54 0;
#X connect 93 0 57 0;
#X connect 94 0 60 0;
#X connect 95 0 63 0;
#X restore 63 263 pd seq2_toggles;
#X obj 184 314 spigot;
#X floatatom 213 292 5 0 0 0 - - -, f 5;
#X obj 244 314 spigot;
#X floatatom 273 292 5 0 0 0 - - -, f 5;
#X obj 303 315 spigot;
#X floatatom 332 293 5 0 0 0 - - -, f 5;
#X obj 363 315 spigot;
#X floatatom 392 293 5 0 0 0 - - -, f 5;
#X obj 432 316 spigot;
#X floatatom 461 294 5 0 0 0 - - -, f 5;
#X obj 492 316 spigot;
#X floatatom 521 294 5 0 0 0 - - -, f 5;
#X obj 551 317 spigot;
#X floatatom 580 295 5 0 0 0 - - -, f 5;
#X obj 611 317 spigot;
#X floatatom 640 295 5 0 0 0 - - -, f 5;
#X obj 671 317 spigot;
#X floatatom 700 295 5 0 0 0 - - -, f 5;
#X obj 731 317 spigot;
#X floatatom 760 295 5 0 0 0 - - -, f 5;
#X obj 790 318 spigot;
#X floatatom 819 296 5 0 0 0 - - -, f 5;
#X obj 850 318 spigot;
#X floatatom 879 296 5 0 0 0 - - -, f 5;
#X obj 919 319 spigot;
#X floatatom 948 297 5 0 0 0 - - -, f 5;
#X obj 979 319 spigot;
#X floatatom 1008 297 5 0 0 0 - - -, f 5;
#X obj 1058 320 spigot;
#X floatatom 1087 298 5 0 0 0 - - -, f 5;
#X obj 1157 320 spigot;
#X floatatom 1186 298 5 0 0 0 - - -, f 5;
#X obj 207 255 r g2s1;
#X obj 267 255 r g2s2;
#X obj 326 256 r g2s3;
#X obj 386 256 r g2s4;
#X obj 455 257 r g2s5;
#X obj 515 257 r g2s6;
#X obj 574 258 r g2s7;
#X obj 634 258 r g2s8;
#X obj 694 258 r g2s9;
#X obj 754 258 r g2s10;
#X obj 813 259 r g2s11;
#X obj 873 259 r g2s12;
#X obj 942 260 r g2s13;
#X obj 1002 260 r g2s14;
#X obj 1096 261 r g2s15;
#X obj 1180 261 r g2s16;
#X obj 183 189 s gate1;
#X obj 186 341 s gate2;
#X obj 246 341 s gate2;
#X obj 305 342 s gate2;
#X obj 365 342 s gate2;
#X obj 434 343 s gate2;
#X obj 494 343 s gate2;
#X obj 553 344 s gate2;
#X obj 613 344 s gate2;
#X obj 673 344 s gate2;
#X obj 733 344 s gate2;
#X obj 792 345 s gate2;
#X obj 852 345 s gate2;
#X obj 921 346 s gate2;
#X obj 981 346 s gate2;
#X obj 1060 347 s gate2;
#X obj 1159 347 s gate2;
#X text 518 -505 MASTER SEQUENCER;
#X text 81 -251 show active step in GUI display;
#X obj 731 -384 r list1;
#X obj 728 -355 route /length;
#X obj 373 -457 r reset;
#X msg 484 -429 15;
#X obj 160 445 spigot;
#X floatatom 189 423 5 0 0 0 - - -, f 5;
#X obj 220 445 spigot;
#X floatatom 249 423 5 0 0 0 - - -, f 5;
#X obj 279 446 spigot;
#X floatatom 308 424 5 0 0 0 - - -, f 5;
#X obj 339 446 spigot;
#X floatatom 368 424 5 0 0 0 - - -, f 5;
#X obj 408 447 spigot;
#X floatatom 437 425 5 0 0 0 - - -, f 5;
#X obj 468 447 spigot;
#X floatatom 497 425 5 0 0 0 - - -, f 5;
#X obj 527 448 spigot;
#X floatatom 556 426 5 0 0 0 - - -, f 5;
#X obj 587 448 spigot;
#X floatatom 614 426 5 0 0 0 - - -, f 5;
#X obj 647 448 spigot;
#X floatatom 676 426 5 0 0 0 - - -, f 5;
#X obj 707 448 spigot;
#X floatatom 736 426 5 0 0 0 - - -, f 5;
#X obj 766 449 spigot;
#X floatatom 795 427 5 0 0 0 - - -, f 5;
#X obj 826 449 spigot;
#X floatatom 855 427 5 0 0 0 - - -, f 5;
#X obj 895 450 spigot;
#X floatatom 924 428 5 0 0 0 - - -, f 5;
#X obj 955 450 spigot;
#X floatatom 984 428 5 0 0 0 - - -, f 5;
#X obj 1034 451 spigot;
#X floatatom 1063 429 5 0 0 0 - - -, f 5;
#X obj 1133 451 spigot;
#X floatatom 1162 429 5 0 0 0 - - -, f 5;
#X obj 183 386 r g3s1;
#X obj 302 387 r g3s3;
#X obj 362 387 r g3s4;
#X obj 431 388 r g3s5;
#X obj 491 388 r g3s6;
#X obj 550 389 r g3s7;
#X obj 610 389 r g3s8;
#X obj 670 389 r g3s9;
#X obj 730 389 r g3s10;
#X obj 789 390 r g3s11;
#X obj 849 390 r g3s12;
#X obj 918 391 r g3s13;
#X obj 978 391 r g3s14;
#X obj 1072 392 r g3s15;
#X obj 1156 392 r g3s16;
#X obj 162 472 s gate3;
#X obj 222 472 s gate3;
#X obj 281 473 s gate3;
#X obj 341 473 s gate3;
#X obj 410 474 s gate3;
#X obj 470 474 s gate3;
#X obj 529 475 s gate3;
#X obj 589 475 s gate3;
#X obj 649 475 s gate3;
#X obj 709 475 s gate3;
#X obj 768 476 s gate3;
#X obj 828 476 s gate3;
#X obj 897 477 s gate3;
#X obj 957 477 s gate3;
#X obj 1036 478 s gate3;
#X obj 1135 478 s gate3;
#N canvas 189 50 1440 761 seq3_toggles 0;
#X obj 566 -287 tgl 15 0 empty empty empty 17 7 0 10 -262144 -1 -1
0 1;
#X obj 674 -290 tgl 15 0 empty empty empty 17 7 0 10 -262144 -1 -1
0 1;
#X obj 777 -301 tgl 15 0 empty empty empty 17 7 0 10 -262144 -1 -1
0 1;
#X obj 871 -299 tgl 15 0 empty empty empty 17 7 0 10 -262144 -1 -1
0 1;
#X obj 623 -128 tgl 15 0 empty empty empty 17 7 0 10 -262144 -1 -1
0 1;
#X obj 672 -128 tgl 15 0 empty empty empty 17 7 0 10 -262144 -1 -1
0 1;
#X obj 727 -128 tgl 15 0 empty empty empty 17 7 0 10 -262144 -1 -1
0 1;
#X obj 775 -128 tgl 15 0 empty empty empty 17 7 0 10 -262144 -1 -1
0 1;
#X obj 641 38 tgl 15 0 empty empty empty 17 7 0 10 -262144 -1 -1 0
1;
#X obj 690 38 tgl 15 0 empty empty empty 17 7 0 10 -262144 -1 -1 0
1;
#X obj 745 38 tgl 15 0 empty empty empty 17 7 0 10 -262144 -1 -1 0
1;
#X obj 793 38 tgl 15 0 empty empty empty 17 7 0 10 -262144 -1 -1 0
1;
#X obj 638 235 tgl 15 0 empty empty empty 17 7 0 10 -262144 -1 -1 0
1;
#X obj 687 235 tgl 15 0 empty empty empty 17 7 0 10 -262144 -1 -1 0
1;
#X obj 742 235 tgl 15 0 empty empty empty 17 7 0 10 -262144 -1 -1 0
1;
#X obj 844 236 tgl 15 0 empty empty empty 17 7 0 10 -262144 -1 -1 0
1;
#X obj 556 -391 r list1;
#X obj 563 -341 route 0;
#X obj 563 -313 route 0;
#X obj 665 -395 r list1;
#X obj 672 -345 route 1;
#X obj 672 -317 route 0;
#X obj 776 -409 r list1;
#X obj 783 -331 route 0;
#X obj 783 -359 route 2;
#X obj 869 -406 r list1;
#X obj 876 -328 route 0;
#X obj 876 -356 route 3;
#X obj 570 -232 r list1;
#X obj 577 -154 route 0;
#X obj 577 -182 route 4;
#X obj 662 -233 r list1;
#X obj 669 -155 route 0;
#X obj 669 -183 route 5;
#X obj 750 -237 r list1;
#X obj 757 -159 route 0;
#X obj 757 -187 route 6;
#X obj 840 -234 r list1;
#X obj 847 -156 route 0;
#X obj 847 -184 route 7;
#X obj 567 -68 r list1;
#X obj 574 10 route 0;
#X obj 574 -18 route 8;
#X obj 651 -68 r list1;
#X obj 658 10 route 0;
#X obj 658 -18 route 9;
#X obj 731 -72 r list1;
#X obj 738 6 route 0;
#X obj 738 -22 route 10;
#X obj 846 -68 r list1;
#X obj 853 10 route 0;
#X obj 853 -18 route 11;
#X obj 573 103 r list1;
#X obj 580 181 route 0;
#X obj 580 153 route 12;
#X obj 657 102 r list1;
#X obj 664 180 route 0;
#X obj 664 152 route 13;
#X obj 744 103 r list1;
#X obj 751 181 route 0;
#X obj 751 153 route 14;
#X obj 832 104 r list1;
#X obj 839 182 route 0;
#X obj 839 154 route 15;
#X obj 565 -367 route /seq3;
#X obj 674 -371 route /seq3;
#X obj 785 -385 route /seq3;
#X obj 878 -382 route /seq3;
#X obj 579 -208 route /seq3;
#X obj 671 -209 route /seq3;
#X obj 759 -213 route /seq3;
#X obj 849 -210 route /seq3;
#X obj 576 -44 route /seq3;
#X obj 660 -44 route /seq3;
#X obj 741 -48 route /seq3;
#X obj 855 -44 route /seq3;
#X obj 582 127 route /seq3;
#X obj 666 126 route /seq3;
#X obj 753 127 route /seq3;
#X obj 841 128 route /seq3;
#X obj 561 -265 s g3s1;
#X obj 673 -266 s g3s2;
#X obj 775 -273 s g3s3;
#X obj 869 -271 s g3s4;
#X obj 621 -100 s g3s5;
#X obj 670 -100 s g3s6;
#X obj 725 -100 s g3s7;
#X obj 773 -100 s g3s8;
#X obj 639 66 s g3s9;
#X obj 687 66 s g3s10;
#X obj 743 66 s g3s11;
#X obj 791 66 s g3s12;
#X obj 636 263 s g3s13;
#X obj 685 263 s g3s14;
#X obj 740 263 s g3s15;
#X obj 831 266 s g3s16;
#X connect 0 0 80 0;
#X connect 1 0 81 0;
#X connect 2 0 82 0;
#X connect 3 0 83 0;
#X connect 4 0 84 0;
#X connect 5 0 85 0;
#X connect 6 0 86 0;
#X connect 7 0 87 0;
#X connect 8 0 88 0;
#X connect 9 0 89 0;
#X connect 10 0 90 0;
#X connect 11 0 91 0;
#X connect 12 0 92 0;
#X connect 13 0 93 0;
#X connect 14 0 94 0;
#X connect 15 0 95 0;
#X connect 16 0 64 0;
#X connect 17 0 18 0;
#X connect 18 0 0 0;
#X connect 19 0 65 0;
#X connect 20 0 21 0;
#X connect 21 0 1 0;
#X connect 22 0 66 0;
#X connect 23 0 2 0;
#X connect 24 0 23 0;
#X connect 25 0 67 0;
#X connect 26 0 3 0;
#X connect 27 0 26 0;
#X connect 28 0 68 0;
#X connect 29 0 4 0;
#X connect 30 0 29 0;
#X connect 31 0 69 0;
#X connect 32 0 5 0;
#X connect 33 0 32 0;
#X connect 34 0 70 0;
#X connect 35 0 6 0;
#X connect 36 0 35 0;
#X connect 37 0 71 0;
#X connect 38 0 7 0;
#X connect 39 0 38 0;
#X connect 40 0 72 0;
#X connect 41 0 8 0;
#X connect 42 0 41 0;
#X connect 43 0 73 0;
#X connect 44 0 9 0;
#X connect 45 0 44 0;
#X connect 46 0 74 0;
#X connect 47 0 10 0;
#X connect 48 0 47 0;
#X connect 49 0 75 0;
#X connect 50 0 11 0;
#X connect 51 0 50 0;
#X connect 52 0 76 0;
#X connect 53 0 12 0;
#X connect 54 0 53 0;
#X connect 55 0 77 0;
#X connect 56 0 13 0;
#X connect 57 0 56 0;
#X connect 58 0 78 0;
#X connect 59 0 14 0;
#X connect 60 0 59 0;
#X connect 61 0 79 0;
#X connect 62 0 15 0;
#X connect 63 0 62 0;
#X connect 64 0 17 0;
#X connect 65 0 20 0;
#X connect 66 0 24 0;
#X connect 67 0 27 0;
#X connect 68 0 30 0;
#X connect 69 0 33 0;
#X connect 70 0 36 0;
#X connect 71 0 39 0;
#X connect 72 0 42 0;
#X connect 73 0 45 0;
#X connect 74 0 48 0;
#X connect 75 0 51 0;
#X connect 76 0 54 0;
#X connect 77 0 57 0;
#X connect 78 0 60 0;
#X connect 79 0 63 0;
#X restore 61 406 pd seq3_toggles;
#X obj 243 386 r g3s2;
#X obj 153 580 spigot;
#X floatatom 182 558 5 0 0 0 - - -, f 5;
#X obj 213 580 spigot;
#X floatatom 242 558 5 0 0 0 - - -, f 5;
#X obj 272 581 spigot;
#X floatatom 301 559 5 0 0 0 - - -, f 5;
#X obj 332 581 spigot;
#X floatatom 361 559 5 0 0 0 - - -, f 5;
#X obj 401 582 spigot;
#X floatatom 430 560 5 0 0 0 - - -, f 5;
#X obj 461 582 spigot;
#X floatatom 490 560 5 0 0 0 - - -, f 5;
#X obj 520 583 spigot;
#X floatatom 549 561 5 0 0 0 - - -, f 5;
#X obj 580 583 spigot;
#X floatatom 609 561 5 0 0 0 - - -, f 5;
#X obj 640 583 spigot;
#X floatatom 669 561 5 0 0 0 - - -, f 5;
#X obj 700 583 spigot;
#X floatatom 729 561 5 0 0 0 - - -, f 5;
#X obj 759 584 spigot;
#X floatatom 788 562 5 0 0 0 - - -, f 5;
#X obj 819 584 spigot;
#X floatatom 848 562 5 0 0 0 - - -, f 5;
#X obj 888 585 spigot;
#X floatatom 917 563 5 0 0 0 - - -, f 5;
#X obj 948 585 spigot;
#X floatatom 977 563 5 0 0 0 - - -, f 5;
#X obj 1027 586 spigot;
#X floatatom 1056 564 5 0 0 0 - - -, f 5;
#X obj 1126 586 spigot;
#X floatatom 1155 564 5 0 0 0 - - -, f 5;
#N canvas 70 50 1440 761 seq4_toggles 0;
#X obj 504 115 tgl 15 0 empty empty empty 17 7 0 10 -262144 -1 -1 0
1;
#X obj 612 112 tgl 15 0 empty empty empty 17 7 0 10 -262144 -1 -1 0
1;
#X obj 715 101 tgl 15 0 empty empty empty 17 7 0 10 -262144 -1 -1 0
1;
#X obj 809 103 tgl 15 0 empty empty empty 17 7 0 10 -262144 -1 -1 0
1;
#X obj 561 274 tgl 15 0 empty empty empty 17 7 0 10 -262144 -1 -1 0
1;
#X obj 610 274 tgl 15 0 empty empty empty 17 7 0 10 -262144 -1 -1 0
1;
#X obj 665 274 tgl 15 0 empty empty empty 17 7 0 10 -262144 -1 -1 0
1;
#X obj 713 274 tgl 15 0 empty empty empty 17 7 0 10 -262144 -1 -1 0
1;
#X obj 579 440 tgl 15 0 empty empty empty 17 7 0 10 -262144 -1 -1 0
1;
#X obj 628 440 tgl 15 0 empty empty empty 17 7 0 10 -262144 -1 -1 0
1;
#X obj 683 440 tgl 15 0 empty empty empty 17 7 0 10 -262144 -1 -1 0
1;
#X obj 731 440 tgl 15 0 empty empty empty 17 7 0 10 -262144 -1 -1 0
1;
#X obj 576 637 tgl 15 0 empty empty empty 17 7 0 10 -262144 -1 -1 0
1;
#X obj 625 637 tgl 15 0 empty empty empty 17 7 0 10 -262144 -1 -1 0
1;
#X obj 680 637 tgl 15 0 empty empty empty 17 7 0 10 -262144 -1 -1 0
1;
#X obj 782 638 tgl 15 0 empty empty empty 17 7 0 10 -262144 -1 -1 0
1;
#X obj 494 11 r list1;
#X obj 501 61 route 0;
#X obj 501 89 route 0;
#X obj 603 7 r list1;
#X obj 610 57 route 1;
#X obj 610 85 route 0;
#X obj 714 -7 r list1;
#X obj 721 71 route 0;
#X obj 721 43 route 2;
#X obj 807 -4 r list1;
#X obj 814 74 route 0;
#X obj 814 46 route 3;
#X obj 508 170 r list1;
#X obj 515 248 route 0;
#X obj 515 220 route 4;
#X obj 600 169 r list1;
#X obj 607 247 route 0;
#X obj 607 219 route 5;
#X obj 688 165 r list1;
#X obj 695 243 route 0;
#X obj 695 215 route 6;
#X obj 778 168 r list1;
#X obj 785 246 route 0;
#X obj 785 218 route 7;
#X obj 505 334 r list1;
#X obj 512 412 route 0;
#X obj 512 384 route 8;
#X obj 589 334 r list1;
#X obj 596 412 route 0;
#X obj 596 384 route 9;
#X obj 669 330 r list1;
#X obj 676 408 route 0;
#X obj 676 380 route 10;
#X obj 784 334 r list1;
#X obj 791 412 route 0;
#X obj 791 384 route 11;
#X obj 511 505 r list1;
#X obj 518 583 route 0;
#X obj 518 555 route 12;
#X obj 595 504 r list1;
#X obj 602 582 route 0;
#X obj 602 554 route 13;
#X obj 682 505 r list1;
#X obj 689 583 route 0;
#X obj 689 555 route 14;
#X obj 770 506 r list1;
#X obj 777 584 route 0;
#X obj 777 556 route 15;
#X obj 503 35 route /seq4;
#X obj 612 31 route /seq4;
#X obj 723 17 route /seq4;
#X obj 816 20 route /seq4;
#X obj 517 194 route /seq4;
#X obj 609 193 route /seq4;
#X obj 698 189 route /seq4;
#X obj 787 192 route /seq4;
#X obj 514 358 route /seq4;
#X obj 598 358 route /seq4;
#X obj 679 354 route /seq4;
#X obj 793 358 route /seq4;
#X obj 520 529 route /seq4;
#X obj 604 528 route /seq4;
#X obj 691 529 route /seq4;
#X obj 779 530 route /seq4;
#X obj 499 137 s g4s1;
#X obj 611 136 s g4s2;
#X obj 713 129 s g4s3;
#X obj 807 131 s g4s4;
#X obj 559 302 s g4s5;
#X obj 608 302 s g4s6;
#X obj 663 302 s g4s7;
#X obj 711 302 s g4s8;
#X obj 577 468 s g4s9;
#X obj 625 468 s g4s10;
#X obj 681 468 s g4s11;
#X obj 729 468 s g4s12;
#X obj 574 665 s g4s13;
#X obj 623 665 s g4s14;
#X obj 678 665 s g4s15;
#X obj 769 668 s g4s16;
#X connect 0 0 80 0;
#X connect 1 0 81 0;
#X connect 2 0 82 0;
#X connect 3 0 83 0;
#X connect 4 0 84 0;
#X connect 5 0 85 0;
#X connect 6 0 86 0;
#X connect 7 0 87 0;
#X connect 8 0 88 0;
#X connect 9 0 89 0;
#X connect 10 0 90 0;
#X connect 11 0 91 0;
#X connect 12 0 92 0;
#X connect 13 0 93 0;
#X connect 14 0 94 0;
#X connect 15 0 95 0;
#X connect 16 0 64 0;
#X connect 17 0 18 0;
#X connect 18 0 0 0;
#X connect 19 0 65 0;
#X connect 20 0 21 0;
#X connect 21 0 1 0;
#X connect 22 0 66 0;
#X connect 23 0 2 0;
#X connect 24 0 23 0;
#X connect 25 0 67 0;
#X connect 26 0 3 0;
#X connect 27 0 26 0;
#X connect 28 0 68 0;
#X connect 29 0 4 0;
#X connect 30 0 29 0;
#X connect 31 0 69 0;
#X connect 32 0 5 0;
#X connect 33 0 32 0;
#X connect 34 0 70 0;
#X connect 35 0 6 0;
#X connect 36 0 35 0;
#X connect 37 0 71 0;
#X connect 38 0 7 0;
#X connect 39 0 38 0;
#X connect 40 0 72 0;
#X connect 41 0 8 0;
#X connect 42 0 41 0;
#X connect 43 0 73 0;
#X connect 44 0 9 0;
#X connect 45 0 44 0;
#X connect 46 0 74 0;
#X connect 47 0 10 0;
#X connect 48 0 47 0;
#X connect 49 0 75 0;
#X connect 50 0 11 0;
#X connect 51 0 50 0;
#X connect 52 0 76 0;
#X connect 53 0 12 0;
#X connect 54 0 53 0;
#X connect 55 0 77 0;
#X connect 56 0 13 0;
#X connect 57 0 56 0;
#X connect 58 0 78 0;
#X connect 59 0 14 0;
#X connect 60 0 59 0;
#X connect 61 0 79 0;
#X connect 62 0 15 0;
#X connect 63 0 62 0;
#X connect 64 0 17 0;
#X connect 65 0 20 0;
#X connect 66 0 24 0;
#X connect 67 0 27 0;
#X connect 68 0 30 0;
#X connect 69 0 33 0;
#X connect 70 0 36 0;
#X connect 71 0 39 0;
#X connect 72 0 42 0;
#X connect 73 0 45 0;
#X connect 74 0 48 0;
#X connect 75 0 51 0;
#X connect 76 0 54 0;
#X connect 77 0 57 0;
#X connect 78 0 60 0;
#X connect 79 0 63 0;
#X restore 54 541 pd seq4_toggles;
#X obj 155 607 s gate4;
#X obj 215 607 s gate4;
#X obj 274 608 s gate4;
#X obj 334 608 s gate4;
#X obj 403 609 s gate4;
#X obj 463 609 s gate4;
#X obj 522 610 s gate4;
#X obj 582 610 s gate4;
#X obj 642 610 s gate4;
#X obj 702 610 s gate4;
#X obj 761 611 s gate4;
#X obj 821 611 s gate4;
#X obj 890 612 s gate4;
#X obj 950 612 s gate4;
#X obj 1029 613 s gate4;
#X obj 1128 613 s gate4;
#X obj 176 521 r g4s1;
#X obj 236 521 r g4s2;
#X obj 295 522 r g4s3;
#X obj 355 522 r g4s4;
#X obj 424 523 r g4s5;
#X obj 484 523 r g4s6;
#X obj 543 524 r g4s7;
#X obj 603 524 r g4s8;
#X obj 663 524 r g4s9;
#X obj 723 524 r g4s10;
#X obj 782 525 r g4s11;
#X obj 842 525 r g4s12;
#X obj 911 526 r g4s13;
#X obj 971 526 r g4s14;
#X obj 1065 527 r g4s15;
#X obj 1149 527 r g4s16;
#X text 370 24 reset on length setting +1;
#X text 726 -523 GATE SEQUENCER this is the main sequencer that controls
the 4 main voices;
#X obj 834 -387 loadbang;
#X msg 829 -357 15;
#X obj 694 -303 + 1;
#X obj 604 -322 +;
#X obj 657 -454 route /direction;
#X obj 657 -483 r list1;
#X floatatom 653 -432 5 0 0 0 - - -, f 5;
#X obj 651 -413 sel 0;
#X msg 641 -386 1;
#X msg 673 -390 -1;
#X obj 431 -355 sel;
#X obj 827 -427 send toGUI;
#X obj 827 -496 loadbang;
#X msg 830 -448 list /direction \$1;
#X msg 829 -469 0;
#X obj 974 -310 send toGUI;
#X obj 974 -379 loadbang;
#X msg 977 -331 list /length \$1;
#X msg 976 -352 15;
#X floatatom 463 -377 5 0 0 0 - - -, f 5;
#X obj 436 -324 bng 15 250 50 0 empty empty empty 17 7 0 10 -262144
-1 -1;
#X obj 547 -275 mod 16;
#X msg 461 -300 0;
#X text 58 82 SEQ1;
#X text 64 237 SEQ2;
#X text 62 380 SEQ3;
#X text 55 515 SEQ4;
#N canvas 510 74 688 665 g1 0;
#X obj 66 -306 routeOSC /1;
#X text 14 -297 row;
#X obj 159 -339 routeOSC /2;
#X text 13 -338 columns;
#X obj 68 -279 tgl 15 0 empty empty empty 17 7 0 10 -262144 -1 -1 0
1;
#X obj 161 -315 routeOSC /1;
#X obj 162 -285 tgl 15 0 empty empty empty 17 7 0 10 -262144 -1 -1
0 1;
#X obj 96 -277 s g1s1;
#X obj 188 -287 s g1s2;
#X obj 252 -312 routeOSC /1;
#X obj 253 -282 tgl 15 0 empty empty empty 17 7 0 10 -262144 -1 -1
0 1;
#X obj 250 -336 routeOSC /3;
#X obj 279 -284 s g1s3;
#X obj 336 -312 routeOSC /1;
#X obj 337 -282 tgl 15 0 empty empty empty 17 7 0 10 -262144 -1 -1
0 1;
#X obj 66 -364 r g1;
#X obj 158 -365 r g1;
#X obj 254 -365 r g1;
#X obj 334 -362 r g1;
#X obj 363 -284 s g1s4;
#X obj 334 -336 routeOSC /4;
#X obj 68 -219 routeOSC /1;
#X obj 159 -223 routeOSC /2;
#X obj 68 -163 tgl 15 0 empty empty empty 17 7 0 10 -262144 -1 -1 0
1;
#X obj 162 -169 tgl 15 0 empty empty empty 17 7 0 10 -262144 -1 -1
0 1;
#X obj 253 -166 tgl 15 0 empty empty empty 17 7 0 10 -262144 -1 -1
0 1;
#X obj 250 -220 routeOSC /3;
#X obj 337 -166 tgl 15 0 empty empty empty 17 7 0 10 -262144 -1 -1
0 1;
#X obj 66 -248 r g1;
#X obj 158 -249 r g1;
#X obj 254 -249 r g1;
#X obj 334 -246 r g1;
#X obj 334 -220 routeOSC /4;
#X obj 66 -190 routeOSC /2;
#X obj 161 -199 routeOSC /2;
#X obj 252 -196 routeOSC /2;
#X obj 336 -196 routeOSC /2;
#X obj 96 -161 s g1s5;
#X obj 188 -171 s g1s6;
#X obj 279 -168 s g1s7;
#X obj 363 -168 s g1s8;
#X obj 72 -96 routeOSC /1;
#X obj 163 -100 routeOSC /2;
#X obj 72 -40 tgl 15 0 empty empty empty 17 7 0 10 -262144 -1 -1 0
1;
#X obj 166 -46 tgl 15 0 empty empty empty 17 7 0 10 -262144 -1 -1 0
1;
#X obj 257 -43 tgl 15 0 empty empty empty 17 7 0 10 -262144 -1 -1 0
1;
#X obj 254 -97 routeOSC /3;
#X obj 341 -43 tgl 15 0 empty empty empty 17 7 0 10 -262144 -1 -1 0
1;
#X obj 70 -125 r g1;
#X obj 162 -126 r g1;
#X obj 258 -126 r g1;
#X obj 338 -123 r g1;
#X obj 338 -97 routeOSC /4;
#X obj 70 -67 routeOSC /3;
#X obj 165 -76 routeOSC /3;
#X obj 256 -73 routeOSC /3;
#X obj 340 -73 routeOSC /3;
#X obj 100 -38 s g1s9;
#X obj 192 -48 s g1s10;
#X obj 283 -45 s g1s11;
#X obj 367 -45 s g1s12;
#X obj 72 23 routeOSC /1;
#X obj 163 19 routeOSC /2;
#X obj 72 79 tgl 15 0 empty empty empty 17 7 0 10 -262144 -1 -1 0 1
;
#X obj 166 73 tgl 15 0 empty empty empty 17 7 0 10 -262144 -1 -1 0
1;
#X obj 257 76 tgl 15 0 empty empty empty 17 7 0 10 -262144 -1 -1 0
1;
#X obj 254 22 routeOSC /3;
#X obj 341 76 tgl 15 0 empty empty empty 17 7 0 10 -262144 -1 -1 0
1;
#X obj 70 -6 r g1;
#X obj 162 -7 r g1;
#X obj 258 -7 r g1;
#X obj 338 -4 r g1;
#X obj 338 22 routeOSC /4;
#X obj 70 52 routeOSC /4;
#X obj 165 43 routeOSC /4;
#X obj 256 46 routeOSC /4;
#X obj 340 46 routeOSC /4;
#X obj 100 81 s g1s13;
#X obj 192 71 s g1s14;
#X obj 283 74 s g1s15;
#X obj 367 74 s g1s16;
#X text 55 -409 take osc messages sent from `pd network` and route
them to different steps of sequencer;
#X obj 68 -335 routeOSC /1;
#X connect 0 0 4 0;
#X connect 0 0 7 0;
#X connect 2 0 5 0;
#X connect 5 0 6 0;
#X connect 5 0 8 0;
#X connect 9 0 10 0;
#X connect 9 0 12 0;
#X connect 11 0 9 0;
#X connect 13 0 14 0;
#X connect 13 0 19 0;
#X connect 15 0 82 0;
#X connect 16 0 2 0;
#X connect 17 0 11 0;
#X connect 18 0 20 0;
#X connect 20 0 13 0;
#X connect 21 0 33 0;
#X connect 22 0 34 0;
#X connect 26 0 35 0;
#X connect 28 0 21 0;
#X connect 29 0 22 0;
#X connect 30 0 26 0;
#X connect 31 0 32 0;
#X connect 32 0 36 0;
#X connect 33 0 23 0;
#X connect 33 0 37 0;
#X connect 34 0 24 0;
#X connect 34 0 38 0;
#X connect 35 0 25 0;
#X connect 35 0 39 0;
#X connect 36 0 27 0;
#X connect 36 0 40 0;
#X connect 41 0 53 0;
#X connect 42 0 54 0;
#X connect 46 0 55 0;
#X connect 48 0 41 0;
#X connect 49 0 42 0;
#X connect 50 0 46 0;
#X connect 51 0 52 0;
#X connect 52 0 56 0;
#X connect 53 0 43 0;
#X connect 53 0 57 0;
#X connect 54 0 44 0;
#X connect 54 0 58 0;
#X connect 55 0 45 0;
#X connect 55 0 59 0;
#X connect 56 0 47 0;
#X connect 56 0 60 0;
#X connect 61 0 73 0;
#X connect 62 0 74 0;
#X connect 66 0 75 0;
#X connect 68 0 61 0;
#X connect 69 0 62 0;
#X connect 70 0 66 0;
#X connect 71 0 72 0;
#X connect 72 0 76 0;
#X connect 73 0 63 0;
#X connect 73 0 77 0;
#X connect 74 0 64 0;
#X connect 74 0 78 0;
#X connect 75 0 65 0;
#X connect 75 0 79 0;
#X connect 76 0 67 0;
#X connect 76 0 80 0;
#X connect 82 0 0 0;
#X restore 20 -291 pd g1;
#X text 59 -292 route OSC messages;
#N canvas 510 74 688 665 g2 0;
#X obj 68 -335 routeOSC /1;
#X obj 66 -306 routeOSC /1;
#X text 14 -297 row;
#X obj 159 -339 routeOSC /2;
#X text 13 -338 columns;
#X obj 68 -279 tgl 15 0 empty empty empty 17 7 0 10 -262144 -1 -1 0
1;
#X obj 161 -315 routeOSC /1;
#X obj 162 -285 tgl 15 0 empty empty empty 17 7 0 10 -262144 -1 -1
0 1;
#X obj 252 -312 routeOSC /1;
#X obj 253 -282 tgl 15 0 empty empty empty 17 7 0 10 -262144 -1 -1
0 1;
#X obj 250 -336 routeOSC /3;
#X obj 336 -312 routeOSC /1;
#X obj 337 -282 tgl 15 0 empty empty empty 17 7 0 10 -262144 -1 -1
0 1;
#X obj 334 -336 routeOSC /4;
#X obj 68 -219 routeOSC /1;
#X obj 159 -223 routeOSC /2;
#X obj 68 -163 tgl 15 0 empty empty empty 17 7 0 10 -262144 -1 -1 0
1;
#X obj 162 -169 tgl 15 0 empty empty empty 17 7 0 10 -262144 -1 -1
0 1;
#X obj 253 -166 tgl 15 0 empty empty empty 17 7 0 10 -262144 -1 -1
0 1;
#X obj 250 -220 routeOSC /3;
#X obj 337 -166 tgl 15 0 empty empty empty 17 7 0 10 -262144 -1 -1
0 1;
#X obj 334 -220 routeOSC /4;
#X obj 66 -190 routeOSC /2;
#X obj 161 -199 routeOSC /2;
#X obj 252 -196 routeOSC /2;
#X obj 336 -196 routeOSC /2;
#X obj 72 -96 routeOSC /1;
#X obj 163 -100 routeOSC /2;
#X obj 72 -40 tgl 15 0 empty empty empty 17 7 0 10 -262144 -1 -1 0
1;
#X obj 166 -46 tgl 15 0 empty empty empty 17 7 0 10 -262144 -1 -1 0
1;
#X obj 257 -43 tgl 15 0 empty empty empty 17 7 0 10 -262144 -1 -1 0
1;
#X obj 254 -97 routeOSC /3;
#X obj 341 -43 tgl 15 0 empty empty empty 17 7 0 10 -262144 -1 -1 0
1;
#X obj 338 -97 routeOSC /4;
#X obj 70 -67 routeOSC /3;
#X obj 165 -76 routeOSC /3;
#X obj 256 -73 routeOSC /3;
#X obj 340 -73 routeOSC /3;
#X obj 72 23 routeOSC /1;
#X obj 163 19 routeOSC /2;
#X obj 72 79 tgl 15 0 empty empty empty 17 7 0 10 -262144 -1 -1 0 1
;
#X obj 166 73 tgl 15 0 empty empty empty 17 7 0 10 -262144 -1 -1 0
1;
#X obj 257 76 tgl 15 0 empty empty empty 17 7 0 10 -262144 -1 -1 0
1;
#X obj 254 22 routeOSC /3;
#X obj 341 76 tgl 15 0 empty empty empty 17 7 0 10 -262144 -1 -1 0
1;
#X obj 338 22 routeOSC /4;
#X obj 70 52 routeOSC /4;
#X obj 165 43 routeOSC /4;
#X obj 256 46 routeOSC /4;
#X obj 340 46 routeOSC /4;
#X text 55 -409 take osc messages sent from `pd network` and route
them to different steps of sequencer;
#X obj 66 -364 r g2;
#X obj 158 -365 r g2;
#X obj 254 -365 r g2;
#X obj 334 -362 r g2;
#X obj 66 -248 r g2;
#X obj 158 -249 r g2;
#X obj 254 -249 r g2;
#X obj 334 -246 r g2;
#X obj 70 -125 r g2;
#X obj 162 -126 r g2;
#X obj 258 -126 r g2;
#X obj 338 -123 r g2;
#X obj 70 -6 r g2;
#X obj 162 -7 r g2;
#X obj 258 -7 r g2;
#X obj 338 -4 r g2;
#X obj 96 -277 s g2s1;
#X obj 188 -287 s g2s2;
#X obj 279 -284 s g2s3;
#X obj 363 -284 s g2s4;
#X obj 96 -161 s g2s5;
#X obj 188 -171 s g2s6;
#X obj 279 -168 s g2s7;
#X obj 363 -168 s g2s8;
#X obj 100 -38 s g2s9;
#X obj 192 -48 s g2s10;
#X obj 283 -45 s g2s11;
#X obj 367 -45 s g2s12;
#X obj 100 81 s g2s13;
#X obj 192 71 s g2s14;
#X obj 283 74 s g2s15;
#X obj 367 74 s g2s16;
#X connect 0 0 1 0;
#X connect 1 0 5 0;
#X connect 1 0 67 0;
#X connect 3 0 6 0;
#X connect 6 0 7 0;
#X connect 6 0 68 0;
#X connect 8 0 9 0;
#X connect 8 0 69 0;
#X connect 10 0 8 0;
#X connect 11 0 12 0;
#X connect 11 0 70 0;
#X connect 13 0 11 0;
#X connect 14 0 22 0;
#X connect 15 0 23 0;
#X connect 19 0 24 0;
#X connect 21 0 25 0;
#X connect 22 0 16 0;
#X connect 22 0 71 0;
#X connect 23 0 17 0;
#X connect 23 0 72 0;
#X connect 24 0 18 0;
#X connect 24 0 73 0;
#X connect 25 0 20 0;
#X connect 25 0 74 0;
#X connect 26 0 34 0;
#X connect 27 0 35 0;
#X connect 31 0 36 0;
#X connect 33 0 37 0;
#X connect 34 0 28 0;
#X connect 34 0 75 0;
#X connect 35 0 29 0;
#X connect 35 0 76 0;
#X connect 36 0 30 0;
#X connect 36 0 77 0;
#X connect 37 0 32 0;
#X connect 37 0 78 0;
#X connect 38 0 46 0;
#X connect 39 0 47 0;
#X connect 43 0 48 0;
#X connect 45 0 49 0;
#X connect 46 0 40 0;
#X connect 46 0 79 0;
#X connect 47 0 41 0;
#X connect 47 0 80 0;
#X connect 48 0 42 0;
#X connect 48 0 81 0;
#X connect 49 0 44 0;
#X connect 49 0 82 0;
#X connect 51 0 0 0;
#X connect 52 0 3 0;
#X connect 53 0 10 0;
#X connect 54 0 13 0;
#X connect 55 0 14 0;
#X connect 56 0 15 0;
#X connect 57 0 19 0;
#X connect 58 0 21 0;
#X connect 59 0 26 0;
#X connect 60 0 27 0;
#X connect 61 0 31 0;
#X connect 62 0 33 0;
#X connect 63 0 38 0;
#X connect 64 0 39 0;
#X connect 65 0 43 0;
#X connect 66 0 45 0;
#X restore 20 -266 pd g2;
#X obj 566 -52 r link_step;
#X floatatom 584 -22 5 0 0 0 - - -, f 5;
#N canvas 510 74 688 665 g3 0;
#X obj 68 -335 routeOSC /1;
#X obj 66 -306 routeOSC /1;
#X text 14 -297 row;
#X obj 159 -339 routeOSC /2;
#X text 13 -338 columns;
#X obj 68 -279 tgl 15 0 empty empty empty 17 7 0 10 -262144 -1 -1 0
1;
#X obj 161 -315 routeOSC /1;
#X obj 162 -285 tgl 15 0 empty empty empty 17 7 0 10 -262144 -1 -1
0 1;
#X obj 252 -312 routeOSC /1;
#X obj 253 -282 tgl 15 0 empty empty empty 17 7 0 10 -262144 -1 -1
0 1;
#X obj 250 -336 routeOSC /3;
#X obj 336 -312 routeOSC /1;
#X obj 337 -282 tgl 15 0 empty empty empty 17 7 0 10 -262144 -1 -1
0 1;
#X obj 334 -336 routeOSC /4;
#X obj 68 -219 routeOSC /1;
#X obj 159 -223 routeOSC /2;
#X obj 68 -163 tgl 15 0 empty empty empty 17 7 0 10 -262144 -1 -1 0
1;
#X obj 162 -169 tgl 15 0 empty empty empty 17 7 0 10 -262144 -1 -1
0 1;
#X obj 253 -166 tgl 15 0 empty empty empty 17 7 0 10 -262144 -1 -1
0 1;
#X obj 250 -220 routeOSC /3;
#X obj 337 -166 tgl 15 0 empty empty empty 17 7 0 10 -262144 -1 -1
0 1;
#X obj 334 -220 routeOSC /4;
#X obj 66 -190 routeOSC /2;
#X obj 161 -199 routeOSC /2;
#X obj 252 -196 routeOSC /2;
#X obj 336 -196 routeOSC /2;
#X obj 72 -96 routeOSC /1;
#X obj 163 -100 routeOSC /2;
#X obj 72 -40 tgl 15 0 empty empty empty 17 7 0 10 -262144 -1 -1 0
1;
#X obj 166 -46 tgl 15 0 empty empty empty 17 7 0 10 -262144 -1 -1 0
1;
#X obj 257 -43 tgl 15 0 empty empty empty 17 7 0 10 -262144 -1 -1 0
1;
#X obj 254 -97 routeOSC /3;
#X obj 341 -43 tgl 15 0 empty empty empty 17 7 0 10 -262144 -1 -1 0
1;
#X obj 338 -97 routeOSC /4;
#X obj 70 -67 routeOSC /3;
#X obj 165 -76 routeOSC /3;
#X obj 256 -73 routeOSC /3;
#X obj 340 -73 routeOSC /3;
#X obj 72 23 routeOSC /1;
#X obj 163 19 routeOSC /2;
#X obj 72 79 tgl 15 0 empty empty empty 17 7 0 10 -262144 -1 -1 0 1
;
#X obj 166 73 tgl 15 0 empty empty empty 17 7 0 10 -262144 -1 -1 0
1;
#X obj 257 76 tgl 15 0 empty empty empty 17 7 0 10 -262144 -1 -1 0
1;
#X obj 254 22 routeOSC /3;
#X obj 341 76 tgl 15 0 empty empty empty 17 7 0 10 -262144 -1 -1 0
1;
#X obj 338 22 routeOSC /4;
#X obj 70 52 routeOSC /4;
#X obj 165 43 routeOSC /4;
#X obj 256 46 routeOSC /4;
#X obj 340 46 routeOSC /4;
#X text 55 -409 take osc messages sent from `pd network` and route
them to different steps of sequencer;
#X obj 66 -364 r g3;
#X obj 158 -365 r g3;
#X obj 254 -365 r g3;
#X obj 334 -362 r g3;
#X obj 66 -248 r g3;
#X obj 158 -249 r g3;
#X obj 254 -249 r g3;
#X obj 334 -246 r g3;
#X obj 70 -125 r g3;
#X obj 162 -126 r g3;
#X obj 258 -126 r g3;
#X obj 338 -123 r g3;
#X obj 70 -6 r g3;
#X obj 162 -7 r g3;
#X obj 258 -7 r g3;
#X obj 338 -4 r g3;
#X obj 96 -277 s g3s1;
#X obj 188 -287 s g3s2;
#X obj 279 -284 s g3s3;
#X obj 363 -284 s g3s4;
#X obj 96 -161 s g3s5;
#X obj 188 -171 s g3s6;
#X obj 279 -168 s g3s7;
#X obj 363 -168 s g3s8;
#X obj 100 -38 s g3s9;
#X obj 192 -48 s g3s10;
#X obj 283 -45 s g3s11;
#X obj 367 -45 s g3s12;
#X obj 100 81 s g3s13;
#X obj 192 71 s g3s14;
#X obj 283 74 s g3s15;
#X obj 367 74 s g3s16;
#X connect 0 0 1 0;
#X connect 1 0 5 0;
#X connect 1 0 67 0;
#X connect 3 0 6 0;
#X connect 6 0 7 0;
#X connect 6 0 68 0;
#X connect 8 0 9 0;
#X connect 8 0 69 0;
#X connect 10 0 8 0;
#X connect 11 0 12 0;
#X connect 11 0 70 0;
#X connect 13 0 11 0;
#X connect 14 0 22 0;
#X connect 15 0 23 0;
#X connect 19 0 24 0;
#X connect 21 0 25 0;
#X connect 22 0 16 0;
#X connect 22 0 71 0;
#X connect 23 0 17 0;
#X connect 23 0 72 0;
#X connect 24 0 18 0;
#X connect 24 0 73 0;
#X connect 25 0 20 0;
#X connect 25 0 74 0;
#X connect 26 0 34 0;
#X connect 27 0 35 0;
#X connect 31 0 36 0;
#X connect 33 0 37 0;
#X connect 34 0 28 0;
#X connect 34 0 75 0;
#X connect 35 0 29 0;
#X connect 35 0 76 0;
#X connect 36 0 30 0;
#X connect 36 0 77 0;
#X connect 37 0 32 0;
#X connect 37 0 78 0;
#X connect 38 0 46 0;
#X connect 39 0 47 0;
#X connect 43 0 48 0;
#X connect 45 0 49 0;
#X connect 46 0 40 0;
#X connect 46 0 79 0;
#X connect 47 0 41 0;
#X connect 47 0 80 0;
#X connect 48 0 42 0;
#X connect 48 0 81 0;
#X connect 49 0 44 0;
#X connect 49 0 82 0;
#X connect 51 0 0 0;
#X connect 52 0 3 0;
#X connect 53 0 10 0;
#X connect 54 0 13 0;
#X connect 55 0 14 0;
#X connect 56 0 15 0;
#X connect 57 0 19 0;
#X connect 58 0 21 0;
#X connect 59 0 26 0;
#X connect 60 0 27 0;
#X connect 61 0 31 0;
#X connect 62 0 33 0;
#X connect 63 0 38 0;
#X connect 64 0 39 0;
#X connect 65 0 43 0;
#X connect 66 0 45 0;
#X restore 20 -240 pd g3;
#N canvas 510 74 688 665 g4 0;
#X obj 68 -335 routeOSC /1;
#X obj 66 -306 routeOSC /1;
#X text 14 -297 row;
#X obj 159 -339 routeOSC /2;
#X text 13 -338 columns;
#X obj 68 -279 tgl 15 0 empty empty empty 17 7 0 10 -262144 -1 -1 0
1;
#X obj 161 -315 routeOSC /1;
#X obj 162 -285 tgl 15 0 empty empty empty 17 7 0 10 -262144 -1 -1
0 1;
#X obj 252 -312 routeOSC /1;
#X obj 253 -282 tgl 15 0 empty empty empty 17 7 0 10 -262144 -1 -1
0 1;
#X obj 250 -336 routeOSC /3;
#X obj 336 -312 routeOSC /1;
#X obj 337 -282 tgl 15 0 empty empty empty 17 7 0 10 -262144 -1 -1
0 1;
#X obj 334 -336 routeOSC /4;
#X obj 68 -219 routeOSC /1;
#X obj 159 -223 routeOSC /2;
#X obj 68 -163 tgl 15 0 empty empty empty 17 7 0 10 -262144 -1 -1 0
1;
#X obj 162 -169 tgl 15 0 empty empty empty 17 7 0 10 -262144 -1 -1
0 1;
#X obj 253 -166 tgl 15 0 empty empty empty 17 7 0 10 -262144 -1 -1
0 1;
#X obj 250 -220 routeOSC /3;
#X obj 337 -166 tgl 15 0 empty empty empty 17 7 0 10 -262144 -1 -1
0 1;
#X obj 334 -220 routeOSC /4;
#X obj 66 -190 routeOSC /2;
#X obj 161 -199 routeOSC /2;
#X obj 252 -196 routeOSC /2;
#X obj 336 -196 routeOSC /2;
#X obj 72 -96 routeOSC /1;
#X obj 163 -100 routeOSC /2;
#X obj 72 -40 tgl 15 0 empty empty empty 17 7 0 10 -262144 -1 -1 0
1;
#X obj 166 -46 tgl 15 0 empty empty empty 17 7 0 10 -262144 -1 -1 0
1;
#X obj 257 -43 tgl 15 0 empty empty empty 17 7 0 10 -262144 -1 -1 0
1;
#X obj 254 -97 routeOSC /3;
#X obj 341 -43 tgl 15 0 empty empty empty 17 7 0 10 -262144 -1 -1 0
1;
#X obj 338 -97 routeOSC /4;
#X obj 70 -67 routeOSC /3;
#X obj 165 -76 routeOSC /3;
#X obj 256 -73 routeOSC /3;
#X obj 340 -73 routeOSC /3;
#X obj 72 23 routeOSC /1;
#X obj 163 19 routeOSC /2;
#X obj 72 79 tgl 15 0 empty empty empty 17 7 0 10 -262144 -1 -1 0 1
;
#X obj 166 73 tgl 15 0 empty empty empty 17 7 0 10 -262144 -1 -1 0
1;
#X obj 257 76 tgl 15 0 empty empty empty 17 7 0 10 -262144 -1 -1 0
1;
#X obj 254 22 routeOSC /3;
#X obj 341 76 tgl 15 0 empty empty empty 17 7 0 10 -262144 -1 -1 0
1;
#X obj 338 22 routeOSC /4;
#X obj 70 52 routeOSC /4;
#X obj 165 43 routeOSC /4;
#X obj 256 46 routeOSC /4;
#X obj 340 46 routeOSC /4;
#X text 55 -409 take osc messages sent from `pd network` and route
them to different steps of sequencer;
#X obj 66 -364 r g4;
#X obj 158 -365 r g4;
#X obj 254 -365 r g4;
#X obj 334 -362 r g4;
#X obj 66 -248 r g4;
#X obj 158 -249 r g4;
#X obj 254 -249 r g4;
#X obj 334 -246 r g4;
#X obj 70 -125 r g4;
#X obj 162 -126 r g4;
#X obj 258 -126 r g4;
#X obj 338 -123 r g4;
#X obj 70 -6 r g4;
#X obj 162 -7 r g4;
#X obj 258 -7 r g4;
#X obj 338 -4 r g4;
#X obj 96 -277 s g4s1;
#X obj 188 -287 s g4s2;
#X obj 279 -284 s g4s3;
#X obj 363 -284 s g4s4;
#X obj 96 -161 s g4s5;
#X obj 188 -171 s g4s6;
#X obj 279 -168 s g4s7;
#X obj 363 -168 s g4s8;
#X obj 100 -38 s g4s9;
#X obj 192 -48 s g4s10;
#X obj 283 -45 s g4s11;
#X obj 367 -45 s g4s12;
#X obj 100 81 s g4s13;
#X obj 192 71 s g4s14;
#X obj 283 74 s g4s15;
#X obj 367 74 s g4s16;
#X connect 0 0 1 0;
#X connect 1 0 5 0;
#X connect 1 0 67 0;
#X connect 3 0 6 0;
#X connect 6 0 7 0;
#X connect 6 0 68 0;
#X connect 8 0 9 0;
#X connect 8 0 69 0;
#X connect 10 0 8 0;
#X connect 11 0 12 0;
#X connect 11 0 70 0;
#X connect 13 0 11 0;
#X connect 14 0 22 0;
#X connect 15 0 23 0;
#X connect 19 0 24 0;
#X connect 21 0 25 0;
#X connect 22 0 16 0;
#X connect 22 0 71 0;
#X connect 23 0 17 0;
#X connect 23 0 72 0;
#X connect 24 0 18 0;
#X connect 24 0 73 0;
#X connect 25 0 20 0;
#X connect 25 0 74 0;
#X connect 26 0 34 0;
#X connect 27 0 35 0;
#X connect 31 0 36 0;
#X connect 33 0 37 0;
#X connect 34 0 28 0;
#X connect 34 0 75 0;
#X connect 35 0 29 0;
#X connect 35 0 76 0;
#X connect 36 0 30 0;
#X connect 36 0 77 0;
#X connect 37 0 32 0;
#X connect 37 0 78 0;
#X connect 38 0 46 0;
#X connect 39 0 47 0;
#X connect 43 0 48 0;
#X connect 45 0 49 0;
#X connect 46 0 40 0;
#X connect 46 0 79 0;
#X connect 47 0 41 0;
#X connect 47 0 80 0;
#X connect 48 0 42 0;
#X connect 48 0 81 0;
#X connect 49 0 44 0;
#X connect 49 0 82 0;
#X connect 51 0 0 0;
#X connect 52 0 3 0;
#X connect 53 0 10 0;
#X connect 54 0 13 0;
#X connect 55 0 14 0;
#X connect 56 0 15 0;
#X connect 57 0 19 0;
#X connect 58 0 21 0;
#X connect 59 0 26 0;
#X connect 60 0 27 0;
#X connect 61 0 31 0;
#X connect 62 0 33 0;
#X connect 63 0 38 0;
#X connect 64 0 39 0;
#X connect 65 0 43 0;
#X connect 66 0 45 0;
#X restore 21 -213 pd g4;
#X connect 0 0 284 0;
#X connect 0 0 302 0;
#X connect 1 0 2 0;
#X connect 2 0 3 0;
#X connect 2 0 78 0;
#X connect 2 0 149 0;
#X connect 2 0 214 0;
#X connect 2 1 6 0;
#X connect 2 1 80 0;
#X connect 2 1 151 0;
#X connect 2 1 216 0;
#X connect 2 2 9 0;
#X connect 2 2 82 0;
#X connect 2 2 153 0;
#X connect 2 2 218 0;
#X connect 2 3 12 0;
#X connect 2 3 84 0;
#X connect 2 3 155 0;
#X connect 2 3 220 0;
#X connect 2 4 18 0;
#X connect 2 4 86 0;
#X connect 2 4 157 0;
#X connect 2 4 222 0;
#X connect 2 5 21 0;
#X connect 2 5 88 0;
#X connect 2 5 159 0;
#X connect 2 5 224 0;
#X connect 2 6 24 0;
#X connect 2 6 90 0;
#X connect 2 6 161 0;
#X connect 2 6 226 0;
#X connect 2 7 27 0;
#X connect 2 7 92 0;
#X connect 2 7 163 0;
#X connect 2 7 228 0;
#X connect 2 8 34 0;
#X connect 2 8 94 0;
#X connect 2 8 165 0;
#X connect 2 8 230 0;
#X connect 2 9 37 0;
#X connect 2 9 96 0;
#X connect 2 9 167 0;
#X connect 2 9 232 0;
#X connect 2 10 40 0;
#X connect 2 10 98 0;
#X connect 2 10 169 0;
#X connect 2 10 234 0;
#X connect 2 10 236 0;
#X connect 2 11 43 0;
#X connect 2 11 100 0;
#X connect 2 11 171 0;
#X connect 2 11 238 0;
#X connect 2 12 46 0;
#X connect 2 12 102 0;
#X connect 2 12 173 0;
#X connect 2 13 49 0;
#X connect 2 13 104 0;
#X connect 2 13 175 0;
#X connect 2 13 240 0;
#X connect 2 14 52 0;
#X connect 2 14 106 0;
#X connect 2 14 177 0;
#X connect 2 14 242 0;
#X connect 2 15 55 0;
#X connect 2 15 108 0;
#X connect 2 15 179 0;
#X connect 2 15 244 0;
#X connect 3 0 126 0;
#X connect 4 0 5 0;
#X connect 5 0 3 1;
#X connect 6 0 8 0;
#X connect 7 0 6 1;
#X connect 9 0 11 0;
#X connect 10 0 9 1;
#X connect 12 0 14 0;
#X connect 13 0 12 1;
#X connect 15 0 7 0;
#X connect 16 0 10 0;
#X connect 17 0 13 0;
#X connect 18 0 20 0;
#X connect 19 0 18 1;
#X connect 21 0 23 0;
#X connect 22 0 21 1;
#X connect 24 0 26 0;
#X connect 25 0 24 1;
#X connect 27 0 29 0;
#X connect 28 0 27 1;
#X connect 30 0 19 0;
#X connect 31 0 22 0;
#X connect 32 0 25 0;
#X connect 33 0 28 0;
#X connect 34 0 36 0;
#X connect 35 0 34 1;
#X connect 37 0 39 0;
#X connect 38 0 37 1;
#X connect 40 0 42 0;
#X connect 41 0 40 1;
#X connect 43 0 45 0;
#X connect 44 0 43 1;
#X connect 46 0 48 0;
#X connect 47 0 46 1;
#X connect 49 0 51 0;
#X connect 50 0 49 1;
#X connect 52 0 54 0;
#X connect 53 0 52 1;
#X connect 55 0 57 0;
#X connect 56 0 55 1;
#X connect 58 0 35 0;
#X connect 59 0 38 0;
#X connect 60 0 41 0;
#X connect 61 0 44 0;
#X connect 62 0 47 0;
#X connect 63 0 50 0;
#X connect 64 0 53 0;
#X connect 65 0 56 0;
#X connect 67 0 291 0;
#X connect 68 0 283 0;
#X connect 71 0 70 0;
#X connect 72 0 73 0;
#X connect 73 0 148 0;
#X connect 76 0 0 0;
#X connect 78 0 127 0;
#X connect 79 0 78 1;
#X connect 80 0 128 0;
#X connect 81 0 80 1;
#X connect 82 0 129 0;
#X connect 83 0 82 1;
#X connect 84 0 130 0;
#X connect 85 0 84 1;
#X connect 86 0 131 0;
#X connect 87 0 86 1;
#X connect 88 0 132 0;
#X connect 89 0 88 1;
#X connect 90 0 133 0;
#X connect 91 0 90 1;
#X connect 92 0 134 0;
#X connect 93 0 92 1;
#X connect 94 0 135 0;
#X connect 95 0 94 1;
#X connect 96 0 136 0;
#X connect 97 0 96 1;
#X connect 98 0 137 0;
#X connect 99 0 98 1;
#X connect 100 0 138 0;
#X connect 101 0 100 1;
#X connect 102 0 139 0;
#X connect 103 0 102 1;
#X connect 104 0 140 0;
#X connect 105 0 104 1;
#X connect 106 0 141 0;
#X connect 107 0 106 1;
#X connect 108 0 142 0;
#X connect 109 0 108 1;
#X connect 110 0 79 0;
#X connect 111 0 81 0;
#X connect 112 0 83 0;
#X connect 113 0 85 0;
#X connect 114 0 87 0;
#X connect 115 0 89 0;
#X connect 116 0 91 0;
#X connect 117 0 93 0;
#X connect 118 0 95 0;
#X connect 119 0 97 0;
#X connect 120 0 99 0;
#X connect 121 0 101 0;
#X connect 122 0 103 0;
#X connect 123 0 105 0;
#X connect 124 0 107 0;
#X connect 125 0 109 0;
#X connect 145 0 146 0;
#X connect 146 0 68 0;
#X connect 147 0 148 0;
#X connect 149 0 196 0;
#X connect 150 0 149 1;
#X connect 151 0 197 0;
#X connect 152 0 151 1;
#X connect 153 0 198 0;
#X connect 154 0 153 1;
#X connect 155 0 199 0;
#X connect 156 0 155 1;
#X connect 157 0 200 0;
#X connect 158 0 157 1;
#X connect 159 0 201 0;
#X connect 160 0 159 1;
#X connect 161 0 202 0;
#X connect 162 0 161 1;
#X connect 163 0 203 0;
#X connect 164 0 163 1;
#X connect 165 0 204 0;
#X connect 166 0 165 1;
#X connect 167 0 205 0;
#X connect 168 0 167 1;
#X connect 169 0 206 0;
#X connect 170 0 169 1;
#X connect 171 0 207 0;
#X connect 172 0 171 1;
#X connect 173 0 208 0;
#X connect 174 0 173 1;
#X connect 175 0 209 0;
#X connect 176 0 175 1;
#X connect 177 0 210 0;
#X connect 178 0 177 1;
#X connect 179 0 211 0;
#X connect 180 0 179 1;
#X connect 181 0 150 0;
#X connect 182 0 154 0;
#X connect 183 0 156 0;
#X connect 184 0 158 0;
#X connect 185 0 160 0;
#X connect 186 0 162 0;
#X connect 187 0 164 0;
#X connect 188 0 166 0;
#X connect 189 0 168 0;
#X connect 190 0 170 0;
#X connect 191 0 172 0;
#X connect 192 0 174 0;
#X connect 193 0 176 0;
#X connect 194 0 178 0;
#X connect 195 0 180 0;
#X connect 213 0 152 0;
#X connect 214 0 247 0;
#X connect 215 0 214 1;
#X connect 216 0 248 0;
#X connect 217 0 216 1;
#X connect 218 0 249 0;
#X connect 219 0 218 1;
#X connect 220 0 250 0;
#X connect 221 0 220 1;
#X connect 222 0 251 0;
#X connect 223 0 222 1;
#X connect 224 0 252 0;
#X connect 225 0 224 1;
#X connect 226 0 253 0;
#X connect 227 0 226 1;
#X connect 228 0 254 0;
#X connect 229 0 228 1;
#X connect 230 0 255 0;
#X connect 231 0 230 1;
#X connect 232 0 256 0;
#X connect 233 0 232 1;
#X connect 234 0 257 0;
#X connect 235 0 234 1;
#X connect 236 0 258 0;
#X connect 237 0 236 1;
#X connect 238 0 259 0;
#X connect 239 0 238 1;
#X connect 240 0 260 0;
#X connect 241 0 240 1;
#X connect 242 0 261 0;
#X connect 243 0 242 1;
#X connect 244 0 262 0;
#X connect 245 0 244 1;
#X connect 263 0 215 0;
#X connect 264 0 217 0;
#X connect 265 0 219 0;
#X connect 266 0 221 0;
#X connect 267 0 223 0;
#X connect 268 0 225 0;
#X connect 269 0 227 0;
#X connect 270 0 229 0;
#X connect 271 0 231 0;
#X connect 272 0 233 0;
#X connect 273 0 235 0;
#X connect 274 0 237 0;
#X connect 275 0 239 0;
#X connect 276 0 241 0;
#X connect 277 0 243 0;
#X connect 278 0 245 0;
#X connect 281 0 282 0;
#X connect 282 0 68 0;
#X connect 283 0 300 0;
#X connect 284 0 0 1;
#X connect 285 0 287 0;
#X connect 286 0 285 0;
#X connect 287 0 288 0;
#X connect 288 0 289 0;
#X connect 288 1 290 0;
#X connect 289 0 284 1;
#X connect 290 0 284 1;
#X connect 291 0 301 0;
#X connect 293 0 295 0;
#X connect 294 0 292 0;
#X connect 295 0 294 0;
#X connect 297 0 299 0;
#X connect 298 0 296 0;
#X connect 299 0 298 0;
#X connect 300 0 291 1;
#X connect 301 0 303 0;
#X connect 302 0 67 0;
#X connect 302 0 71 0;
#X connect 302 0 74 0;
#X connect 311 0 1 0;
#X connect 311 0 312 0;
#X restore 63 307 pd sequencer_matrix;
#X text 189 307 < this is where the actual sequencer lives;
#N canvas 700 51 1231 630 sequencer_gates 0;
#X obj 27 103 r gate1;
#X obj 259 107 r gate2;
#X obj 486 107 r gate3;
#X text 25 77 gather the gates from the gate sequencers;
#X obj 120 131 bng 15 250 50 0 empty empty empty 17 7 0 10 -262144
-1 -1;
#X obj 346 134 bng 15 250 50 0 empty empty empty 17 7 0 10 -262144
-1 -1;
#X obj 574 136 bng 15 250 50 0 empty empty empty 17 7 0 10 -262144
-1 -1;
#X obj 45 412 noteout;
#X floatatom 327 32 5 0 0 0 - - -, f 5;
#X obj 275 365 makenote 127 100;
#X obj 278 406 noteout;
#X msg 41 341 36;
#X msg 274 335 38;
#X msg 501 336 40;
#X obj 325 -16 loadbang;
#X obj 755 135 bng 15 250 50 0 empty empty empty 17 7 0 10 -262144
-1 -1;
#X obj 683 365 makenote 127 100;
#X obj 686 406 noteout;
#X obj 667 106 r gate4;
#X msg 682 335 41;
#X obj 88 242 tgl 15 0 empty empty empty 17 7 0 10 -262144 -1 -1 0
1;
#X obj 56 268 spigot;
#X obj 143 194 r program;
#X obj 93 220 sel 0;
#X obj 502 366 makenote 127 300;
#X obj 505 407 noteout;
#X obj 42 371 makenote 127 100;
#X text 362 31 note length (ms);
#X msg 324 5 50;
#X connect 0 0 4 0;
#X connect 0 0 11 0;
#X connect 1 0 5 0;
#X connect 1 0 12 0;
#X connect 2 0 6 0;
#X connect 2 0 13 0;
#X connect 8 0 9 2;
#X connect 8 0 16 2;
#X connect 8 0 24 2;
#X connect 8 0 26 2;
#X connect 9 0 10 0;
#X connect 9 1 10 1;
#X connect 11 0 26 0;
#X connect 12 0 9 0;
#X connect 13 0 24 0;
#X connect 14 0 28 0;
#X connect 16 0 17 0;
#X connect 16 1 17 1;
#X connect 18 0 15 0;
#X connect 18 0 19 0;
#X connect 19 0 16 0;
#X connect 20 0 21 1;
#X connect 23 0 20 0;
#X connect 24 0 25 0;
#X connect 24 1 25 1;
#X connect 26 0 7 0;
#X connect 26 1 7 1;
#X connect 28 0 8 0;
#X restore 62 337 pd sequencer_gates;
#X text 181 339 < here is where the gates end up;
#N canvas 113 51 1019 757 link_linux 0;
#X msg 365 141 tempo \$1;
#X msg 154 142 resolution \$1;
#X msg 257 162 reset \$1 \$2;
#X obj 257 141 pack f f;
#X floatatom 264 260 5 0 0 1 beat_time - -, f 5;
#X floatatom 227 278 5 0 0 1 phase - -, f 5;
#X msg 21 185 \; pd dsp 1;
#X floatatom 190 300 5 0 0 1 step - -, f 5;
#X floatatom 385 248 5 0 0 1 tempo - -, f 5;
#X obj 77 122 tgl 15 0 empty empty empty 17 7 0 10 -262144 -1 -1 1
1;
#X floatatom 365 122 5 0 0 2 tempo - -, f 5;
#X floatatom 302 122 5 0 0 2 quantum - -, f 5;
#X floatatom 257 122 5 0 0 2 beat - -, f 5;
#X floatatom 154 122 5 0 0 2 resolution - -, f 5;
#X msg 77 142 connect \$1;
#X obj 71 12 loadbang;
#X obj 72 36 delay 1000;
#X msg 137 76 4;
#X obj 139 334 s link_step;
#X text 349 11 connect to ableton link;
#X text 161 76 resolution = how many clicks per beat (4 = 16th notes)
;
#X text 226 324 send the step number (and a bang) on each division
;
#X text 17 220 dsp required;
#X text 139 36 let things settle first;
#X obj 41 366 sel 0;
#X obj 46 396 s link_reset;
#X msg 469 128 60;
#X floatatom 612 237 5 0 0 0 - - -, f 5;
#X obj 561 193 r #abl_link_num_peers;
#X obj 612 324 s to_phone;
#X msg 499 281 /bpm \$1;
#X msg 608 281 /link_peers \$1;
#X obj 190 214 abl_link/external/abl_link~ 1 0 4 135;
#X connect 0 0 32 0;
#X connect 1 0 32 0;
#X connect 2 0 32 0;
#X connect 3 0 2 0;
#X connect 9 0 14 0;
#X connect 10 0 0 0;
#X connect 11 0 3 1;
#X connect 12 0 3 0;
#X connect 13 0 1 0;
#X connect 14 0 32 0;
#X connect 15 0 16 0;
#X connect 16 0 9 0;
#X connect 16 0 17 0;
#X connect 16 0 6 0;
#X connect 17 0 13 0;
#X connect 24 0 25 0;
#X connect 26 0 0 0;
#X connect 28 0 27 0;
#X connect 28 0 31 0;
#X connect 30 0 29 0;
#X connect 31 0 29 0;
#X connect 32 0 7 0;
#X connect 32 0 24 0;
#X connect 32 0 18 0;
#X connect 32 1 5 0;
#X connect 32 2 4 0;
#X connect 32 3 8 0;
#X connect 32 3 30 0;
#X restore 57 -55 pd link_linux;
#N canvas 279 51 1019 757 link_mac 0;
#X msg 365 141 tempo \$1;
#X msg 154 142 resolution \$1;
#X msg 257 162 reset \$1 \$2;
#X obj 257 141 pack f f;
#X floatatom 264 260 5 0 0 1 beat_time - -, f 5;
#X floatatom 227 278 5 0 0 1 phase - -, f 5;
#X msg 21 185 \; pd dsp 1;
#X floatatom 190 300 5 0 0 1 step - -, f 5;
#X floatatom 301 239 5 0 0 1 tempo - -, f 5;
#X obj 77 122 tgl 15 0 empty empty empty 17 7 0 10 -262144 -1 -1 1
1;
#X floatatom 365 122 5 0 0 2 tempo - -, f 5;
#X floatatom 302 122 5 0 0 2 quantum - -, f 5;
#X floatatom 257 122 5 0 0 2 beat - -, f 5;
#X floatatom 154 122 5 0 0 2 resolution - -, f 5;
#X msg 77 142 connect \$1;
#X floatatom 467 199 5 0 0 0 - - -, f 5;
#X obj 467 177 r #abl_link_num_peers;
#X obj 71 12 loadbang;
#X obj 72 36 delay 1000;
#X msg 137 76 4;
#X obj 152 323 s link_step;
#X text 349 11 connect to ableton link;
#X text 161 76 resolution = how many clicks per beat (4 = 16th notes)
;
#X text 226 324 send the step number (and a bang) on each division
;
#X text 17 220 dsp required;
#X text 139 36 let things settle first;
#X obj 41 366 sel 0;
#X obj 46 396 s link_reset;
#X msg 469 128 20;
#X obj 465 295 s to_phone;
#X msg 411 252 /bpm \$1;
#X msg 469 252 /link_peers \$1;
#X obj 190 214 abl_link~ 1 0 4 129;
#X connect 0 0 32 0;
#X connect 1 0 32 0;
#X connect 2 0 32 0;
#X connect 3 0 2 0;
#X connect 9 0 14 0;
#X connect 10 0 0 0;
#X connect 11 0 3 1;
#X connect 12 0 3 0;
#X connect 13 0 1 0;
#X connect 14 0 32 0;
#X connect 16 0 15 0;
#X connect 16 0 31 0;
#X connect 17 0 18 0;
#X connect 18 0 9 0;
#X connect 18 0 19 0;
#X connect 18 0 6 0;
#X connect 19 0 13 0;
#X connect 26 0 27 0;
#X connect 28 0 0 0;
#X connect 30 0 29 0;
#X connect 31 0 29 0;
#X connect 32 0 7 0;
#X connect 32 0 20 0;
#X connect 32 0 26 0;
#X connect 32 1 5 0;
#X connect 32 2 4 0;
#X connect 32 3 8 0;
#X connect 32 3 30 0;
#X restore 240 -61 pd link_mac;
#X text 114 48 show a 4-digit binary number with 4 leds;
#X obj 132 -8 r link_step;
#X text 59 280 # STEP SEQUENCERS;
#X obj 454 50 nbx 5 50 0 15 0 0 empty empty empty 0 -8 0 25 -1 -258113
-258113 0 256;
#X obj 455 109 s program;
#X obj 49 -8 r program;
#X obj 441 -92 r to_osc;
#X obj 441 -65 pd-mrpeach/osc/routeOSC /program;
#X obj 504 -6 int;
#X connect 14 0 0 0;
#X connect 16 0 17 0;
#X connect 19 0 20 0;
#X connect 20 0 21 0;
#X connect 21 0 16 0;
